<svg width="2224" height="2225" xmlns="http://www.w3.org/2000/svg" xmlns:xlink="http://www.w3.org/1999/xlink" xml:space="preserve" overflow="hidden"><g transform="translate(-1088 -125)"><path d="M2420.99 848.544C2418.59 851.012 2415.9 851.071 2418.5 861.972 2418.21 868.021 2419.34 868.667 2414.8 872.811 2409.29 877.846 2410.6 878.943 2404.87 883.705 2404.41 882.903 2396 868.069 2395.54 876.918 2395.32 881.074 2403.16 884.954 2404.02 885.379 2405.62 888.268 2413.12 891.454 2398.83 909.455 2389.3 921.461 2386.7 931.387 2381.09 934.379 2368.89 940.896 2372.15 945.147 2360.08 951.618 2355.14 954.268 2358.43 956.983 2353.87 960.332 2349.79 963.327 2351.93 973.003 2338.02 988.637 2324.65 1003.66 2369.63 989.337 2372.24 988.506 2389.76 982.928 2390.11 985.735 2391.6 985.224 2393.1 984.706 2408.66 979.352 2410.23 978.175 2420.65 970.36 2422.61 974.661 2433.91 968.264 2435.72 967.238 2451.66 965.37 2456.42 962.739 2462.85 959.184 2463.08 960.431 2470.04 958.214 2470.97 957.916 2480.85 954.766 2481.6 954.211 2492.46 946.105 2532.15 937.343 2537.56 934.331 2554.33 924.988 2556.8 931.505 2562.3 927.145 2571.93 919.517 2580.71 921.089 2584.12 919.911 2592.43 917.044 2591.96 915.762 2600.86 915.262 2611.11 914.686 2632.45 902.505 2653.68 895.868 2679.01 887.95 2679.2 888.626 2681.3 887.667 2687.98 884.612 2688.39 885.974 2692.08 883.733 2706.8 874.794 2714.6 873.397 2757.56 856.204 2785.32 845.094 2791.06 836.67 2795.48 834.735 2808.31 829.122 2789.67 822.894 2781.58 812.686 2760.99 786.682 2745.1 784.666 2735.27 765.24 2728.46 751.796 2709.34 751.055 2705.06 743.333 2693.18 721.95 2717.58 724.734 2719.2 724.325 2740.76 718.851 2740.49 717.893 2742.41 717.719 2757.74 716.333 2736.79 709.561 2733.84 703.602 2727.27 690.339 2747.31 695.03 2755.44 691.139 2766.75 685.725 2776.37 693.385 2784.51 688.076 2792.1 683.12 2871.38 686.392 2871.58 686.463 2879.89 689.419 2880.39 686.975 2888.67 690.256 2899.64 694.6 2900.81 690.303 2911.42 695.638 2920.7 700.305 2922.07 695.414 2930.33 700.087 2934.41 702.395 2986.32 722.526 2991.83 725.177 3044.54 750.536 3057.93 765.708 3062.38 770.745 3082.54 793.583 3092.93 796.737 3097.39 801.249 3115.93 820.024 3131.12 822.099 3132.42 830.242 3134.24 841.664 3135.43 842.696 3148.15 852.235 3156.68 858.634 3155.64 864.804 3163.94 869.791 3172.64 875.019 3171.39 876.182 3177.05 884.639 3179.27 887.962 3198.18 905.676 3199.55 908.609 3205.12 920.584 3206.07 920.144 3206.24 921.277 3207.47 929.31 3209.26 928.573 3211.27 936.402 3212.19 939.994 3217.83 946.138 3218.88 950.909 3223.27 970.943 3241.08 976.645 3247.89 987.082 3252.1 993.538 3252.45 993.136 3256.71 999.501 3263.68 1009.91 3265.22 1019.38 3265.81 1020.35 3279.6 1042.82 3277.03 1045.31 3277.23 1105.46 3277.6 1110.95 3277.1 1110.93 3278.31 1113.64 3284.87 1128.34 3277.41 1128.71 3277.14 1145.66 3276.95 1157.94 3249.65 1174.04 3247.07 1192.11 3246.26 1197.78 3245.15 1197.23 3243.09 1202.49 3234.06 1225.51 3228.19 1220.34 3217.87 1227.41 3210.45 1232.5 3195.18 1220.51 3180.17 1225.55 3179.17 1225.89 3171.16 1228.58 3167.97 1230.76 3163.09 1234.1 3135.05 1232.2 3134.1 1231.82 3121.04 1226.69 3120.45 1228.31 3119.55 1227.49 3100.25 1209.83 3099.63 1210.59 3097.96 1209.05 3088.38 1200.2 3086.36 1203.85 3081.29 1200.17 3066.7 1189.6 3065.92 1190.69 3064.95 1189.46 3050.83 1171.53 3045.52 1182.1 3023.88 1175.19 3020.23 1174.03 3015.98 1177.97 3009.05 1178.02 2989.88 1178.16 2990.11 1179.93 2971.02 1180.48 2964.71 1180.67 2920.65 1200.93 2929.9 1176.9 2934.63 1181.21 2934.5 1181.34 2935.01 1181.55 2935.7 1181.84 2942.66 1182.8 2936.32 1172.19 2954.11 1168.43 2953.46 1166.79 2960.63 1164.9 2962.51 1164.4 2970.55 1164.9 2973.12 1162.63 2975.86 1160.2 2973.11 1158.37 2973.11 1158.28 2959.52 1162.37 2959.36 1161.01 2945.73 1165.15 2931.15 1169.57 2930.57 1167.64 2922.18 1160.63 2915.85 1155.34 2902.51 1165.69 2901.12 1166.77 2896.27 1170.53 2894.12 1166.25 2887.67 1172.44 2881.78 1178.09 2867.66 1172.91 2879.72 1158.22 2880.3 1157.51 2893.68 1157.72 2888.26 1152.86 2888.14 1152.76 2884.38 1152.67 2884.12 1152.79 2881.27 1154.05 2880.85 1157.05 2879.64 1154.28 2878.75 1152.24 2882.81 1133.71 2865.38 1147.97 2849.27 1161.15 2844.65 1151.35 2827.27 1162.77 2821.37 1166.65 2821.3 1166.16 2814.54 1167.15 2811.19 1167.65 2810.58 1170.69 2797.67 1170.08 2792.49 1169.84 2792.55 1166.48 2797.23 1164.18 2801.06 1162.31 2800.17 1161.39 2801.37 1160.25 2802.7 1145.29 2811.77 1146.69 2829.77 1137.82 2837.33 1134.1 2838.36 1136.75 2845.05 1131.61 2849.64 1128.08 2869.82 1117.14 2856.77 1118.06 2847.89 1118.68 2844.33 1129.36 2823.04 1133.78 2821.95 1134.01 2822.56 1135.35 2810.24 1139.34 2803.94 1141.38 2787.77 1155.71 2776.37 1154.4 2762.87 1152.86 2743.98 1159.75 2739.63 1163.78 2738.82 1164.53 2693.08 1193.42 2688.15 1187.47 2683.74 1182.14 2696.08 1161.12 2702.49 1166.69 2706.78 1170.43 2707.35 1167.34 2708.7 1166.82 2696.36 1149.63 2686.65 1175.53 2674.95 1177.83 2656.02 1181.53 2655.14 1194.1 2638.9 1196.32 2627.72 1197.85 2627.28 1211.59 2598.91 1226.4 2587.73 1232.24 2588.52 1245.47 2577.4 1239.01 2568.32 1233.74 2568.38 1239.42 2558.63 1243.36 2550.51 1234.68 2549.77 1242.39 2550.19 1242.92 2552.34 1245.58 2552.82 1244.89 2554.77 1247.51 2554.7 1247.56 2552.27 1250.94 2547.72 1253.08 2541.74 1255.9 2543.58 1245.37 2537.62 1248.11 2531.66 1250.86 2534 1261.83 2533.99 1262.1 2533.88 1269.35 2522.65 1268.73 2520.75 1270.74 2518.66 1272.95 2520.93 1272.78 2524.27 1274.95 2524.73 1275.24 2528.04 1277.68 2520.15 1280.32 2518.99 1280.71 2498.78 1299.85 2500.39 1281.14 2498.69 1279.57 2498.98 1279.5 2497.73 1277.44 2493.96 1284.63 2498.28 1289.66 2490.9 1288.92 2485.37 1288.37 2482.17 1296.31 2479.86 1292.12 2475.99 1285.1 2474.94 1292.71 2467.51 1295.71 2440.49 1306.6 2442.83 1312.08 2427.32 1314.4 2419.98 1315.49 2421.03 1320.75 2400.58 1332.88 2395.47 1336.16 2394.22 1337.82 2393.79 1338.38 2385.82 1348.93 2383.16 1345.2 2376.95 1347.39 2374.55 1348.24 2347.92 1367.67 2341.36 1378.76 2335.6 1388.48 2332.89 1386.2 2326.77 1395.88 2323.18 1401.77 2322.8 1401.34 2318.38 1406.7 2312.34 1414.03 2314.06 1414.96 2308.21 1422.17 2303.83 1427.57 2305.58 1428.7 2300.64 1433.58 2294.62 1439.52 2297.67 1442.57 2295.3 1445.46 2290.37 1451.5 2290.97 1451.75 2287.67 1458.75 2279.88 1475.27 2281.61 1475.94 2280.63 1477.18 2274.85 1484.43 2275.75 1501.94 2272.53 1513.68 2264.49 1542.94 2272.42 1546.44 2274.85 1566.79 2275.24 1570.03 2281.48 1581.24 2282.26 1587.85 2283.5 1598.26 2287.3 1597.1 2288.56 1606.9 2289.39 1613.31 2292.85 1614.7 2293.39 1617.65 2294.82 1625.42 2294.27 1625.5 2298.21 1632.47 2305.39 1645.16 2304.97 1645.38 2305.71 1646.41 2311.68 1654.78 2314.09 1649.46 2319.39 1640.71 2331 1621.52 2332.83 1623.06 2333.82 1621.4 2334.71 1619.91 2344.18 1604.14 2344.67 1602.6 2346.58 1596.6 2347.98 1597.54 2350.92 1591.95 2357.41 1579.58 2360.1 1581.51 2366.28 1568.97 2378.86 1543.4 2421.37 1502 2442.4 1491.05 2443.7 1490.38 2455.76 1484.1 2459 1483.56 2471.74 1481.43 2470.27 1478 2482.13 1473.08 2492.73 1468.67 2492.14 1467.87 2493.08 1467.6 2498.76 1465.92 2498.08 1464.74 2503.55 1463.05 2512.04 1460.43 2512.01 1460.66 2535.32 1448.33 2558.53 1436.05 2558.65 1436.68 2560.41 1435.25 2566.55 1430.25 2599.49 1416.63 2600.17 1415.9 2600.76 1415.27 2604 1411.83 2609.2 1409.93 2611.98 1408.92 2626.76 1403.52 2643.38 1395.8 2664.14 1386.16 2664.95 1388.24 2666.62 1387.18 2673.73 1382.66 2686.16 1382.49 2689.39 1380.16 2695.55 1375.74 2696.53 1378.21 2701.88 1375.42 2716.05 1368.02 2722.61 1372.17 2727.27 1369.2 2733.01 1365.53 2733.81 1367.89 2739.84 1364.72 2745.02 1361.99 2745.57 1363.79 2750.82 1361.15 2759.5 1356.77 2760.38 1360.39 2768.06 1357.57 2779.02 1353.55 2779.67 1357.37 2790.85 1354.09 2811.66 1348 2815.1 1350.63 2818.87 1349.17 2832.51 1343.87 2843.19 1347.82 2850.64 1345.24 2864.86 1340.33 2865.66 1344.58 2879.95 1340.13 2890.79 1336.76 2896.8 1340.74 2900.91 1339.47 2916.56 1334.65 2941.95 1338.4 2943.29 1338.92 2956.44 1343.97 2956.88 1342.5 2957.95 1343.09 2973.82 1351.92 2975.91 1346.8 2982.97 1351.88 2991.68 1358.13 2992.86 1355.9 2999.25 1360.45 3016.68 1372.86 3032.42 1370.6 3039.65 1377.41 3055.27 1392.11 3068.38 1392.53 3070.06 1393.67 3097.95 1412.64 3099.36 1411.04 3105.32 1419.4 3117.55 1436.55 3120.37 1433.92 3121.17 1435.54 3126.58 1446.43 3125.64 1446.76 3126.23 1447.62 3147.71 1478.86 3146.53 1479.58 3148.42 1482.28 3152.31 1487.84 3150.29 1488.64 3153.54 1494.41 3158.62 1503.41 3155.58 1504.12 3156.92 1509.65 3157.28 1511.15 3160.25 1523.44 3162.3 1528.17 3166.29 1537.37 3161.61 1538.03 3164.44 1547.45 3167.57 1557.91 3167.52 1557.82 3167.38 1568.85 3167.32 1573.09 3164.54 1577.7 3164.27 1579.55 3163.15 1587.4 3161.08 1586.67 3159.87 1594.35 3157.69 1608.17 3156.81 1607.82 3156.68 1609.01 3155.94 1615.74 3154.27 1615.07 3152.09 1621.48 3146.87 1636.85 3137.28 1635.31 3132.52 1643.31 3123.83 1657.91 3112.44 1664.65 3100.13 1676.91 3079.09 1697.87 3071.6 1710.64 3059.16 1720.34 3056.1 1722.73 3052.84 1725.28 3029.27 1758.59 3020.09 1771.57 3013.95 1766.3 3000.86 1789.08 2996.36 1796.89 2986.49 1793.04 2986.08 1792.61 2986.01 1792.54 2985.65 1783.4 2980.8 1792.38 2980.25 1792.26 2969.63 1790.06 2974.08 1794.6 2975.19 1795.73 2975.34 1795.38 2979.87 1796.77 2987.31 1802.8 2983.79 1804.91 2976.47 1811.17 2959.57 1825.6 2957.34 1822.02 2956.53 1820.46 2955.76 1818.98 2955.61 1818.2 2969.24 1803.93 2969.61 1803.54 2976.45 1802.52 2972.33 1800.29 2966.72 1797.27 2963.69 1801.89 2956.94 1808.59 2949.29 1816.21 2942.48 1832.38 2932.87 1837.54 2925.76 1841.36 2934.85 1841.42 2938.93 1848.38 2945.26 1859.18 2965.82 1859.1 2983.25 1884.42 2990.43 1894.84 2993.23 1890.5 3005.21 1895.92 3028.22 1906.33 3030.66 1904.18 3032.6 1911.53 3034.9 1920.27 3034.49 1920.38 3039.24 1928.21 3045.71 1938.86 3043.84 1939.44 3042.45 1951.8 3041.63 1959.08 3048.41 1959.01 3051.76 1961.9 3053.04 1963 3065.41 1973.64 3062.78 1979.77 3060.52 1985.04 3059.58 1984.47 3057.91 1989.98 3052.38 2004.41 3048.52 2001.88 3040.82 2015.36 3039.88 2017.01 3036.81 2022.37 3050.82 2036.95 3065.88 2052.6 3051.81 2055.01 3043.1 2062.12 3033.81 2069.69 3031.93 2063.53 3023.97 2066.4 3010.8 2071.16 3008.69 2065.03 3003.08 2070.74 3000.25 2073.61 2995.3 2077.76 2998.95 2082.74 3009.2 2096.71 2993.35 2099.49 2992.34 2100.23 2974.29 2113.45 2960.58 2106.27 2949.77 2108.11 2945.4 2108.85 2907.54 2107.46 2903.6 2109.14 2890.44 2114.77 2887.34 2112.11 2881.95 2111.54 2872.01 2110.49 2872.81 2114.77 2865.32 2115.47 2853.42 2116.59 2853.53 2117.57 2852.51 2117.4 2838.69 2115.14 2838.81 2115.91 2825 2115.59 2797.22 2114.96 2787.11 2129.69 2778.4 2131.28 2766.66 2133.42 2750.37 2145.08 2744.79 2146.89 2733.17 2150.67 2723.41 2164.08 2717.27 2148.62 2722.2 2143.88 2724.89 2145.57 2725.34 2138.64 2719.18 2138.82 2719.87 2140.38 2715.06 2143.99 2699.96 2149.9 2697 2158.95 2688.08 2154.11 2675.83 2147.47 2657.39 2178.3 2648.43 2161.65 2651.25 2156.02 2650.43 2155.44 2655.61 2152.12 2661.49 2148.36 2663.8 2141.32 2658.06 2144.68 2647.36 2150.92 2645.64 2157.76 2645.27 2159.26 2629.73 2160.67 2628 2153.63 2622.91 2159.89 2617.28 2166.83 2613.52 2161.58 2608.16 2168.58 2594.68 2186.15 2589.24 2178.52 2571.44 2191.24 2559.12 2200.03 2559.26 2200.18 2558.16 2200.91 2554.49 2203.32 2551.4 2196.37 2527.13 2215 2510.75 2212.15 2511.65 2209.01 2512.42 2207.95 2512.76 2207.48 2512.88 2207.67 2518.63 2204.05 2522 2201.63 2522.12 2201.76 2522.27 2201.44 2522.89 2200.1 2521.7 2199.22 2524.72 2197.97 2526 2197.44 2527.45 2197.42 2528.7 2196.83 2533.07 2194.76 2530.68 2193.5 2529.72 2188.86 2527.39 2186.83 2527.61 2185.81 2524.7 2186.72 2522.52 2187.4 2523.31 2188.02 2523.43 2190.42 2523.23 2191.3 2524.55 2192.09 2524.36 2192.98 2523.57 2196.53 2515.09 2200.91 2514.15 2201.4 2507.46 2204.27 2506.29 2202.87 2502.67 2209.26 2502.11 2210.25 2501.81 2209.78 2488.75 2212.19 2484.22 2213.02 2484.84 2208.78 2480.29 2210.03 2474.97 2211.49 2475.05 2208.18 2478.04 2203.57 2480.12 2200.36 2479.45 2196.61 2480.63 2195.57 2483.08 2193.44 2483.25 2195.31 2486.65 2197.04 2489.61 2210.3 2497.25 2196.54 2503.79 2195.61 2513.04 2194.29 2512.83 2191.53 2512.77 2190.72 2512.21 2183.5 2495.42 2198.79 2488.63 2195.17 2482.24 2179.5 2507.52 2175.98 2516.16 2173.16 2516.79 2173.6 2517.84 2172.86 2518.47 2173.3 2522.89 2176.4 2521.71 2177.51 2522.16 2177.56 2522.6 2177.61 2522.46 2176.39 2522.91 2176.44 2528.85 2170.62 2532.13 2170.7 2529.02 2167.57 2528.55 2167.09 2527.77 2166.32 2521.73 2171.85L2521.56 2169.8C2521.72 2167.49 2519.83 2161.94 2527.26 2158.03 2536.82 2153 2561.97 2131.91 2566.97 2129.52 2584.38 2121.2 2601.06 2103.27 2618.52 2094.19 2624.5 2091.08 2620.36 2087.61 2617.76 2089.38 2616.46 2090.27 2608.01 2096.04 2598.66 2093.92 2588.18 2091.54 2588.03 2096.31 2577.51 2094.03 2553.99 2088.93 2549.03 2095.24 2542.11 2090.71 2526.35 2080.4 2511 2079.2 2493.4 2048.96 2485.61 2035.57 2493.54 2025.51 2492.47 2021.8 2491.97 2020.05 2489.15 2010.22 2484.24 2000.65 2476.6 1985.74 2481.25 1967.86 2485.61 1963.5 2493.65 1955.45 2487.91 1953.86 2485.57 1949.23 2477.35 1932.92 2471.88 1933.02 2477.62 1915.66 2480.4 1907.29 2481.02 1907.57 2481.84 1898.87 2481.92 1897.99 2498.66 1874.27 2503.61 1873.95 2512.77 1873.37 2516.13 1875.01 2517.9 1862.9 2519.02 1855.28 2532.51 1859.97 2533.34 1848.17 2534.97 1824.77 2535.22 1824.81 2535.33 1822.77 2535.82 1814.04 2552.81 1808.62 2562.2 1813.18 2580.23 1821.93 2580.88 1804.39 2594.46 1803.25 2609.67 1801.98 2614.51 1794.32 2622.22 1791.67 2636.99 1786.61 2635.82 1784.82 2647.3 1774.03 2654.49 1767.27 2667.75 1761.68 2683.93 1745.17 2732.28 1695.83 2735.12 1698.77 2738.73 1693.98 2761.05 1664.29 2763.68 1666.56 2765.29 1663.77 2774.27 1648.14 2804.66 1626.08 2811.32 1612.85 2817.84 1599.87 2828.23 1589.86 2829.28 1587.91 2838.46 1570.81 2845.14 1567.97 2847.37 1562.21 2853.47 1546.4 2881.26 1514.74 2877.06 1505.62 2876.29 1503.95 2863.66 1497.93 2863.03 1497.88 2845.41 1496.46 2845.6 1495.23 2844.07 1495.22 2824.4 1495.05 2824.49 1493.57 2822.82 1493.86 2804.18 1497.08 2804.02 1493.72 2797.67 1495.46 2780.45 1500.16 2780.12 1498.79 2778.76 1499.53 2767.97 1505.36 2766.82 1501 2759.79 1503.99 2753.24 1506.78 2705.12 1523.2 2678.8 1540.82 2647.76 1561.61 2648.59 1562.7 2643.35 1565.09 2623.33 1574.24 2623.26 1573.54 2621.58 1574.4 2607.42 1581.68 2606.73 1579.74 2605.53 1580.41 2590.23 1588.97 2589.57 1587.28 2588.4 1588.23 2582.98 1592.61 2582.14 1590.47 2575.84 1593.04 2568.66 1595.96 2567.74 1592.92 2561.1 1597.09 2554.2 1601.42 2550.52 1600.11 2533.16 1600.11 2516.23 1600.11 2516.41 1600.93 2499.37 1601.43 2488.64 1601.75 2488.84 1600.34 2478.19 1600.08 2465.92 1599.78 2463.9 1591.85 2442.27 1596.71 2422.82 1601.08 2403.04 1601.46 2392.23 1622.08 2387.89 1630.35 2385.88 1628.74 2381.09 1636.71 2381.03 1636.81 2375.23 1653.09 2375.12 1655.64 2374.74 1664.41 2371.11 1663.83 2371.99 1672.57 2374.68 1699.39 2368.81 1699.83 2372.5 1710.59 2377.73 1725.82 2376.15 1726.23 2376.76 1727.49 2380.67 1735.61 2376.64 1736.69 2380.87 1744.49 2388.35 1758.31 2386.2 1758.9 2385.71 1767.79 2385.09 1779.1 2398.22 1776.44 2396 1803.76 2395.57 1809.07 2403.24 1826.44 2405.01 1828.33 2417.15 1841.34 2412.04 1843.79 2416.56 1854.65 2421.23 1865.88 2422.09 1865.68 2422.38 1877.82 2422.41 1878.73 2430.63 1907.71 2431.76 1909.44 2436.67 1916.96 2433.95 1928.92 2434.52 1951.82 2434.69 1958.53 2441.53 1961.68 2442.02 1966.69 2443.39 1980.47 2444.03 1980.29 2444.05 1981.48 2444.54 2011.07 2432.22 2004.01 2425.99 2007.88 2411.52 2016.87 2402.21 2014.15 2407.63 2030.31 2410.59 2039.14 2407.01 2039.3 2397.97 2041.28 2389.03 2043.23 2393.65 2055.14 2390.54 2059.19 2380.4 2072.37 2376.48 2072.1 2372.62 2074.86 2367.53 2078.51 2345.68 2076.35 2345.15 2076.12 2332.99 2070.87 2332.23 2074.08 2319.78 2069.72 2306.59 2065.09 2303.29 2073.36 2286.07 2065.27 2279.92 2062.39 2279.45 2058.6 2277.4 2057.43 2227.28 2028.59 2216.41 1997.1 2207.23 1983.75 2195.31 1966.41 2199.17 1963.14 2194.19 1956.48 2164.09 1916.22 2165.53 1915.26 2162.59 1912.04 2159 1908.09 2159.91 1905.98 2158.19 1903.63 2154.6 1898.73 2156.48 1898.16 2154.48 1892.64 2151.53 1884.53 2149.66 1885.37 2137.19 1850.43 2136.5 1848.51 2137.35 1839.19 2135.4 1835.54 2125.06 1816.18 2137.35 1814.26 2132.23 1792.89 2131.12 1788.29 2133.62 1783.49 2132.75 1780.63 2125.48 1756.69 2129.49 1649.72 2129.61 1649.46 2134.82 1638.49 2132.94 1638.13 2133.33 1625.98 2133.37 1624.76 2136.3 1625.43 2136.77 1611.13 2136.98 1604.88 2140.68 1605.44 2141.24 1600.53 2142.01 1593.75 2144.35 1594.53 2145.15 1587.83 2147.17 1570.93 2151.22 1572.09 2151.89 1566.63 2154.13 1548.54 2160.19 1550.66 2162.86 1539.18 2166.33 1524.29 2171.94 1513.11 2218.36 1452.74 2224.69 1444.51 2228.36 1448.44 2248.66 1423.81 2265.43 1403.48 2269.46 1407.97 2288.06 1389.25 2304.96 1372.26 2306.85 1374.59 2312.69 1369.34 2315.26 1367.03 2341.1 1343.78 2344.09 1339.7 2349.13 1332.82 2350.21 1334.17 2356.53 1328.66 2365.11 1321.17 2365.52 1321.95 2374.11 1314.48 2381.78 1307.8 2383.51 1310.51 2391.01 1303.88 2407.52 1289.31 2408.32 1290.24 2409.48 1288.72 2417.61 1278.05 2438.46 1271.14 2447.01 1265.01 2488.97 1234.95 2492.73 1237.49 2496.32 1233.65 2503.14 1226.35 2504.5 1228.18 2511.67 1221.45 2514.47 1218.83 2543.32 1198.05 2545.25 1195.93 2561.57 1177.96 2574.88 1179.72 2586.11 1169.02 2599.49 1156.28 2603.37 1161.69 2615.14 1149.42 2622.18 1142.07 2625.2 1145.77 2630.9 1137.45 2638.73 1126.01 2642.79 1127.4 2651.06 1121.68 2667.43 1110.36 2671.76 1117 2688.28 1099.75 2691.86 1096.02 2693.24 1098.1 2704.21 1090.01 2711.85 1086.09 2711.11 1085.21 2718.8 1081.34 2734.41 1074.62 2736.99 1063.13 2742.61 1061.17 2764.42 1053.56 2763.15 1048.18 2772.02 1045.72 2787.66 1041.41 2782.6 1033.48 2797.4 1026.83 2807.13 1022.46 2806.03 1020.98 2814.75 1014.93 2867.26 978.533 2869.4 982.066 2873.36 978.203 2898.45 953.745 2907.58 958.929 2906.07 946.674 2905.83 944.759 2898.57 933.236 2897.07 931.836 2879.34 915.29 2874.4 904.676 2864.04 894.935 2843.95 876.038 2820.27 845.592 2812.56 851.823 2811.56 852.634 2802.37 860.063 2800.7 862.767 2791.33 878.019 2788.3 874.923 2778.94 883.753 2772.22 890.092 2770.92 888.045 2763.67 893.851L2761.6 895.993C2761.63 896.822 2760.65 897.468 2760.67 898.297 2760.77 902.55 2762.86 899.321 2767.86 896.668 2775.77 896.365 2775.72 896.374 2776.41 896.341 2781.18 896.11 2788.31 890.362 2791.67 893.123 2803.5 902.83 2761.99 923.947 2745.11 932.692 2737.56 936.603 2742.11 944.835 2736.06 957.264 2732.63 964.307 2733.02 964.333 2732.67 972.216 2732.12 984.662 2710.5 991.326 2716 999.001 2724.28 1010.58 2709.77 1031.17 2693.74 1037.13 2692.72 1037.51 2674.07 1048.73 2665.35 1057.98 2653.65 1070.4 2644.25 1071.2 2641.27 1073.99 2627.59 1086.78 2628.47 1087.46 2614.91 1100.44 2595.17 1119.35 2590.43 1114.11 2577.55 1120.22 2557.41 1129.78 2556.51 1126.56 2554.9 1127.59 2542.21 1135.67 2534.79 1133.23 2530.82 1134.2 2521.71 1136.44 2514.98 1142.17 2513.81 1143.17 2500.99 1154.07 2497.79 1149.43 2492.99 1152.03 2484.58 1156.58 2484.9 1157.01 2475.77 1159.63 2458.96 1164.47 2458.52 1162.32 2457.16 1162.98 2443.53 1169.48 2442.97 1167.66 2441.87 1168.34 2428.22 1176.7 2427.04 1173.82 2423.45 1175.79 2418.55 1178.49 2398.23 1184.11 2398.06 1184.22 2392.05 1188.05 2391.68 1186.86 2385.33 1190.5 2377.47 1195.01 2311.24 1219.58 2305.17 1222.68 2294.96 1227.9 2295.09 1228.11 2294.26 1228.41 2257.17 1241.54 2256.3 1248.72 2234.53 1256.78 2202.55 1268.61 2203.89 1278.62 2190.56 1279.56 2179.59 1280.33 2181.11 1283.44 2173.47 1291.54 2171.64 1293.47 2156.86 1309.13 2140.75 1296.96 2131.9 1290.28 2119.46 1293.34 2114.13 1289.98 2092.1 1276.06 2095.5 1272.72 2087.99 1262.85 2083.21 1256.58 2084.1 1256.18 2080.29 1249.41 2087.21 1241.03 2083.5 1240.04 2082.73 1240.05 2082.14 1240.05 2082.39 1240.46 2078.09 1245.7 2071.56 1239.05 2070.61 1239.5 2070.51 1236.6 2070.05 1224.05 2070.96 1223.84 2068.94 1220.32 2061.58 1207.45 2067.57 1206.23 2065.43 1198.68 2062.77 1189.33 2063.21 1189.34 2062.89 1179.54 2062.69 1173.39 2046.7 1157.13 2045.95 1149.98 2045.79 1148.44 2044.46 1135.84 2042.08 1131.02 2037.78 1122.33 2037.01 1120.31 2046.22 1107.33 2049.27 1099.92 2048.99 1099.86 2054.45 1094.11 2064.6 1099.37 2065.35 1091.54 2063.22 1091.66 2061.88 1091.73 2060.71 1093.08 2059.39 1092.86 2058.16 1092.66 2057.68 1090.76 2056.45 1090.56 2057.43 1080.32 2057.51 1078.74 2063.28 1067.2 2066.47 1060.84 2086.66 1065.79 2076.51 1054.5 2062.2 1038.58 2077.06 1032.67 2080.21 1029 2086.06 1022.16 2086.31 1021.83 2095.38 1021.49 2108.95 1020.99 2127.67 999.656 2128.62 991.133 2130.39 975.155 2136.78 979.395 2151.59 969.082 2162.08 961.125 2159.75 959.38 2161.5 953.22 2165.32 939.799 2170.04 942.805 2175.05 933.75 2183.56 918.365 2192.59 914.146 2200.16 893.483 2201.35 890.229 2224.15 852.199 2233.17 843.44 2247.33 829.679 2247.41 829.933 2258.65 813.778 2262.65 808.03 2260.38 807.353 2262.76 800.89 2265.68 792.964 2271.02 785.9 2271.91 784.714 2272.57 783.847 2278.24 776.344 2279.08 773.167 2283.62 756.055 2289.06 758.731 2293.41 745.56 2298.83 729.145 2306.25 723.738 2308.3 719.981 2321.82 695.173 2331.06 684.539 2352.11 638.243 2354.37 633.28 2391.4 575.45 2392.09 570.197 2393.57 558.784 2400.36 553.618 2403.14 544.514 2404.84 538.951 2405.67 539.445 2407.73 533.964 2412.96 520.1 2413.95 520.499 2414.13 519.225 2416.02 505.504 2453.76 445.665 2423.15 443.418 2400.73 441.771 2397.4 443.89 2395.53 445.079 2389.62 448.842 2388.76 446.082 2383.44 448.35 2355.61 460.213 2343.4 471.902 2340.49 474.69 2337.09 477.951 2336.17 476.445 2332.67 479.606 2314.22 496.245 2312.93 494.703 2311.69 496.463 2299.87 513.243 2300.83 513.939 2286.36 528.471 2274.58 540.294 2277.82 542.942 2265.4 554.103 2246 571.525 2245.29 585.739 2232.28 594.706 2218.29 604.351 2221.25 618.087 2213.01 626.398 2206.53 632.932 2207.44 633.551 2192.59 658.955 2183.24 674.935 2183.25 674.727 2182.5 676.134 2172.88 694.24 2170.59 692.803 2162.23 711.449 2161.85 712.313 2157.12 716.7 2156.4 718.061 2150.16 729.833 2150.18 729.702 2143.3 741.113 2138.84 748.511 2139.47 748.63 2135.64 756.397 2132.24 763.306 2130.36 761.993 2127.46 769.192 2121.56 783.806 2111.47 779.735 2112.82 769.064 2113.36 764.768 2137.39 719.404 2138 718.468 2149.46 700.772 2148 688.503 2162.28 666.969 2179.18 641.47 2187.39 618.788 2191.03 615.131 2195.6 610.541 2194.54 610.013 2196.76 603.937 2198.25 599.874 2202.1 602.167 2224.34 557.416 2225.43 555.213 2263.89 500.673 2266.42 497.965 2280.32 483.111 2279.65 482.718 2291.22 465.854 2292.21 464.418 2302.58 449.293 2303.48 447.852 2304.72 445.859 2303.8 445.373 2317.74 422.189 2318.74 420.513 2327.66 412.073 2328.06 411.47 2343.85 387.187 2387.45 351.125 2391.29 349.624 2408.57 342.868 2403.03 333.658 2421 328.626 2433.68 325.077 2434.57 327.132 2445.1 319.375 2454.2 312.679 2463.72 315.597 2467.09 313.377 2472.58 309.751 2473.15 311.478 2518.35 311.035 2529.65 310.924 2559.49 325.508 2575.23 343.902 2578.29 347.475 2600.93 362.407 2610.58 376.075 2614.02 380.957 2646.48 408.587 2651.63 426.232 2655.83 440.66 2657.9 439.724 2658.25 440.97 2660.35 448.553 2658.28 449.008 2661.77 456.026 2674.91 482.419 2667.18 487.757 2670 498.37 2672.85 509.081 2668.29 520.136 2667.1 525.778 2666.68 527.772 2667.74 546.814 2665.89 550.852 2658.29 567.518 2661.42 568.619 2657.26 576.096 2652.05 585.438 2653.65 585.945 2653.12 586.682 2634.25 612.818 2640.69 618.102 2618.31 634.518 2603.27 645.551 2601.74 664.759 2581.56 679.827 2554.85 699.769 2557.04 701.894 2537.67 729.002 2520.83 752.562 2518.12 750.292 2517.04 752.55 2507.11 773.236 2497.3 772.45 2492.9 781.684 2489.68 788.449 2487.97 787.192 2485.18 792.652 2466.23 829.75 2459.77 833.728 2444.83 851.862 2443.11 854.262 2443.23 854.056 2443.11 854.262 2437.47 864.351 2434.79 860.231 2423.15 860.192 2421.36 853.734 2427.12 851.259 2420.98 848.542L2361.78 923.366C2359.06 926.045 2359.52 926.212 2359.17 930.034 2360.08 930.765 2360.99 931.496 2361.9 932.228 2365.14 929.515 2365.25 929.676 2366.35 925.604 2365.88 925.069 2366.55 924.023 2366.08 923.488 2366.08 923.488 2362.13 923.375 2361.78 923.366L2420.98 848.542Z" fill="#2A3F6F" fill-rule="evenodd"/><path d="M1833.27 451.377C1836.84 460.256 1840.37 458.662 1841.6 468.322 1841.98 471.356 1841.53 471.147 1840.81 506.534 1840.56 518.427 1834.01 519.91 1832.98 538.316 1832.71 543.083 1821.65 553.315 1821.56 561.543 1821.41 574.283 1822.3 574.233 1819 586.715 1816.84 594.878 1821.91 603.963 1815.38 614.379 1810.28 622.506 1815.75 623.791 1811.47 637.784 1809.06 645.632 1815.52 654.141 1807.37 667.579 1805.64 670.425 1808.64 676.897 1807.46 684.368 1806.77 688.691 1806.38 688.457 1806.29 692.964 1814.01 705.882 1821.68 727.699 1832.54 739.159 1833.19 741.343 1833.84 743.527 1834.49 745.711 1838.77 743.141 1837.3 742.204 1836.99 737.259 1835.88 731.605 1834.63 732.389 1830.51 728.383 1827.86 725.806 1823.35 687.172 1835.08 713.628 1838.51 721.375 1851.9 730.796 1853.74 737.137 1855.49 743.197 1859.85 736.777 1870 744.203 1878.63 750.51 1880.74 745.63 1889.65 751.759 1897.41 757.097 1900.91 749.688 1915.55 759.522 1915.74 759.652 1930.96 762.842 1931.82 762.732 1946.04 760.905 1945.31 765.633 1959.37 768.429 1965.15 769.578 1976.82 783.652 1982.54 783.873 1995.96 784.392 1996.39 783.485 2007.53 790.747 2009.88 792.28 2043.87 810.515 2044.55 826.039 2044.95 834.999 2047.5 834.24 2049.08 842.911 2049.9 847.43 2059.58 853.41 2064.03 862.584 2069.68 874.26 2069.68 874.295 2069.84 887.422 2069.92 893.158 2076 897.55 2076.13 904.344 2076.49 923.351 2081.06 924.236 2074.43 934.63 2070.91 940.143 2068.1 962.269 2063.42 970.26 2059.88 976.32 2063.4 978.649 2053.77 986.07 2042.85 994.485 2043.59 995.787 2035.52 998.143 2032.52 999.02 2024.49 1007.86 2018.6 1008.62 2010.83 1009.64 2011.21 1010.39 2003.79 1012.64 1999.86 1013.83 1986.65 1010.85 1976.42 1020.98 1968.85 1028.48 1968.25 1029.62 1927.57 1028.94 1918 1028.78 1917.73 1020.7 1891.64 1018.39 1890.05 1018.25 1890.54 1016.51 1872.42 1012.89 1860.41 1010.48 1867.67 996.227 1836.55 989.316 1828.98 987.633 1804.3 971.565 1796.89 978.87 1795.68 980.065 1787.42 990.658 1786.61 991.696 1785.8 992.74 1786.63 992.885 1782.91 1007.83 1781.52 1013.42 1781.55 1013.31 1779.11 1018.38 1775.2 1026.53 1781.87 1029.13 1775.54 1048.33 1769.66 1066.17 1781.16 1068.34 1772 1084.81 1768.63 1090.86 1770.9 1120.8 1763.84 1134.56 1759.93 1142.17 1763.51 1176.4 1761.95 1181.44 1755.91 1200.98 1759.41 1214.43 1752.14 1215.88 1724.38 1221.44 1724.54 1223.68 1724.71 1226.02 1725.26 1233.82 1733.49 1234.5 1727.31 1239.34 1721.57 1243.83 1725.87 1246.52 1720.68 1251.8 1719.05 1253.45 1716.39 1265.76 1718.47 1268.15 1723.9 1274.37 1723.51 1274.75 1723.46 1283.14 1723.46 1284.45 1729.52 1294.66 1733.03 1278.93 1734.28 1273.29 1739.01 1275.84 1739.57 1278.86 1739.78 1280.03 1739.52 1279.93 1741.85 1293.55 1753.06 1301.96 1744.38 1305.63 1748.02 1319.09 1749.73 1325.44 1748.47 1325.54 1750.85 1331.51 1752.95 1336.77 1749.28 1341.71 1749.01 1344.43 1748.22 1352.18 1750.13 1353.23 1744.04 1357.99 1740.75 1360.56 1742.24 1361.19 1741.65 1365.71 1730.89 1376.72 1737.21 1386.08 1740.5 1379.89 1743.03 1375.13 1740.43 1373.39 1745.09 1370.83 1751.74 1378.58 1751.63 1379.3 1749.02 1388.63 1746.98 1395.9 1751.33 1397.19 1751.5 1401.68 1752.2 1420.54 1749.38 1447.81 1754.46 1460.72 1756.26 1465.31 1756.61 1466.22 1755.95 1522.27 1755.83 1532.27 1750.65 1532.01 1753.81 1541.46 1756.61 1549.84 1751.66 1554.87 1751.58 1558.22 1751.16 1575.27 1755.34 1577.78 1742.13 1588.72 1741.29 1589.42 1741.54 1589.58 1740.19 1594.24 1740.7 1604.42 1751.49 1598.94 1751.53 1609.05 1751.55 1614.5 1752.23 1614.63 1749.65 1619.43 1747.31 1623.79 1748.49 1623.94 1748.34 1632.32 1748.03 1643.31 1749.24 1645.07 1741.56 1648.3 1731.81 1638.58 1730.58 1646.38 1731.08 1647.06 1731.38 1647.45 1731.41 1647.38 1735.42 1651.42 1731.25 1659.32 1733.66 1659.65 1733.77 1661.88 1733.93 1665.04 1720.44 1676.22 1730.92 1675.02 1739.16 1674.08 1736.35 1678.55 1739.83 1689.28 1741.56 1694.6 1732.71 1733.11 1741.22 1727.13 1741.96 1726.61 1744.49 1708.79 1748.61 1725.26 1750.22 1731.7 1751.1 1731.5 1750.61 1738.03 1750.07 1745.35 1756.91 1738.71 1762.74 1721.23 1763.46 1719.08 1765.19 1720.03 1775.21 1695.76 1778.46 1687.87 1781.36 1689.3 1783.19 1680.87 1784.94 1672.77 1791.2 1675.19 1798.9 1642.99 1800.03 1638.26 1816.87 1608.38 1819.28 1589.91 1819.55 1587.84 1823.68 1578.37 1824.11 1577.38 1827.38 1569.87 1828.9 1570.52 1830.02 1562.44 1830.14 1561.58 1831.27 1561.91 1832.97 1551.98 1834.4 1543.64 1840.49 1544.83 1840.87 1530.74 1840.98 1526.8 1846.14 1514.89 1846.72 1513.55 1851.11 1503.42 1855.71 1520.2 1859.41 1515.46 1860.06 1514.63 1860.16 1513.47 1860.73 1512.58 1865.3 1505.43 1869.17 1524.29 1863.69 1536.86 1862.85 1538.78 1857.43 1551.2 1858.81 1562.55 1860.78 1571.39 1865.93 1570.8 1862.87 1577.65 1860.13 1583.82 1861.1 1584.01 1863.74 1590.14 1866.53 1596.65 1858.48 1601.6 1857.82 1604.82 1853.19 1627.5 1842.02 1637.18 1855.6 1634.11 1864.73 1632.05 1862.84 1645.61 1866.32 1655.58 1868.49 1661.81 1868.79 1661.68 1867.76 1668.32 1875.07 1675.82 1869.26 1676.82 1868.58 1681.05 1867.03 1690.79 1866.44 1690.51 1864.09 1700.03 1862.85 1705.06 1864 1705.11 1867.68 1707.17 1872.71 1709.97 1860.01 1745.87 1858.06 1748.9 1853.66 1755.73 1859.02 1757.91 1850.22 1770.48 1845.71 1776.92 1851.75 1788.95 1842.81 1803.61 1841.6 1805.59 1831.66 1833.76 1840.29 1842.43 1850.89 1853.08 1840.52 1855.58 1839.48 1871.54 1839.07 1877.78 1838.79 1877.6 1838.08 1883.93 1835.55 1898.22 1830.08 1898.91 1829.93 1905.28 1829.53 1922.38 1829.61 1922.26 1825.33 1938.94 1822.61 1949.51 1826.71 1949.91 1823.55 1960.21 1807.49 2012.48 1829.35 2021.86 1826.55 2034.45 1823.48 2048.21 1821.94 2047.88 1821.51 2061.88 1821.26 2069.83 1815.82 2071.1 1813.94 2087.34 1813.62 2090.1 1799.04 2112.82 1794.46 2115.05 1784.65 2119.83 1785.12 2120.51 1775.08 2124.94 1759.84 2131.65 1758.22 2142.31 1757.91 2144.36 1757.11 2149.63 1758.98 2150.26 1754.67 2155.5 1752.7 2157.53 1736.43 2174.28 1722.37 2169.99 1716.13 2168.08 1716.07 2167.99 1709.7 2169.71 1700.04 2177.65 1694.48 2183.85 1674.63 2168.88 1671.15 2166.25 1663.75 2155.43 1658.99 2155.16 1658.02 2155.1 1639.38 2155.89 1632.73 2147.14 1631.51 2145.54 1630.17 2147.05 1615.25 2129.04 1613.91 2127.42 1616.01 2126.16 1601.74 2106.46 1593.47 2095.06 1575.33 2061.41 1574 2053.47 1573.12 2048.15 1564.85 2037.87 1563.13 2032.44 1555.94 2009.68 1551.03 2011.43 1547.01 1987.81 1546.5 1984.8 1541.61 1977.75 1541.05 1976.93 1538.07 1972.64 1540.38 1967.24 1531.94 1960.58 1521.76 1952.54 1530.76 1948.65 1524.3 1932.65 1520.97 1924.39 1526.24 1918.23 1527.06 1917.28 1537.41 1905.18 1525.76 1900.44 1535.52 1887.74 1541.61 1879.82 1539.05 1867.21 1540.88 1860.91 1547.25 1839.02 1547.1 1839.09 1547.35 1816.43 1547.44 1807.43 1546.85 1807.24 1551.01 1799.4 1555.34 1791.22 1548.43 1789.27 1554.81 1769.71 1557.6 1761.18 1550.56 1666.6 1559.86 1609.07 1561.21 1600.71 1556.07 1598.4 1561.58 1585.67 1566.93 1573.32 1558.81 1536.54 1565.93 1520.15 1567.85 1515.74 1564.82 1511.62 1564.78 1511.47 1561.35 1500.25 1563.25 1500.1 1563.17 1488.42 1563.26 1456.26 1563.27 1456.24 1563.86 1454.57 1565.45 1450.11 1566.33 1450.64 1567.08 1446.11 1566.87 1423.8 1567.41 1424.03 1566.96 1401.66 1567.08 1388.85 1567.45 1388.93 1564.92 1376.43 1562.8 1365.92 1566.89 1366.23 1567.02 1352.99 1562.43 1332.38 1567.95 1332.54 1568.42 1325.52 1568.45 1325.18 1568.36 1325.21 1567.64 1321.39 1558.37 1296.32 1567.39 1295.62 1566.94 1276.81 1566.56 1260.92 1570.72 1262.03 1573.64 1255.36 1576.23 1249.43 1567.55 1237.61 1571.83 1227.9 1574.65 1221.53 1570.99 1221.31 1570.81 1217.52 1569.95 1199.53 1569.17 1199.47 1573.32 1181.82 1577.89 1162.38 1567.21 1152.1 1578.54 1124.4 1581.32 1117.61 1575.83 1100.26 1581.55 1084.5 1583.65 1078.7 1579.11 1065.34 1584.71 1052.42 1592.42 1034.6 1557.34 1072.71 1555.65 1082.18 1550.97 1108.43 1552.59 1109.32 1548.36 1113.2 1542.04 1119.01 1531.89 1131.4 1532.88 1134.87 1536.64 1148.12 1537.31 1148.84 1530.27 1160.61 1523.41 1172.08 1526.51 1173.97 1517.13 1183.49 1498.71 1202.2 1502.55 1216.81 1493.75 1223.47 1486.74 1228.76 1484.91 1238.76 1480.61 1244.45 1473.06 1254.45 1479.95 1256.03 1477.81 1268.49 1474.06 1290.26 1473.43 1290.6 1474.8 1291.89 1476.54 1293.53 1491.29 1290.1 1490.57 1297.99 1488.88 1316.47 1483.47 1314.49 1477.19 1331.84 1472.29 1345.39 1464.01 1346.6 1453.14 1369.66 1452.89 1370.2 1446.32 1376.96 1442.11 1387.29 1433.21 1409.13 1423.22 1405.33 1414.27 1423.08 1403.86 1443.72 1420.19 1452.17 1400.52 1464.33 1396.5 1466.81 1388.67 1468.05 1385.99 1475.62 1381.06 1489.54 1377.84 1487.11 1347.64 1504.49 1335.37 1511.56 1326.83 1513.01 1318.1 1519.5 1317.94 1519.63 1303.39 1525.52 1289.52 1517.11 1282.86 1513.07 1281.89 1515.17 1275.49 1510.63 1268.61 1505.74 1257.99 1516.27 1229.3 1499.76 1222.99 1496.13 1222.18 1497.86 1216.59 1493.28 1204.76 1483.6 1203.48 1485.27 1193.15 1474.16 1184.4 1464.74 1185.58 1463.9 1176.86 1454.56 1173.92 1451.41 1164.85 1432.84 1164.74 1431.21 1163.75 1417.15 1160.55 1417.82 1159.95 1403.78 1159.89 1402.54 1159.23 1402.91 1154.88 1389.16 1149.78 1373.06 1133.3 1367.74 1126.88 1342.16 1125.01 1334.67 1119.23 1336.45 1119.1 1325.48 1118.77 1297.88 1119.1 1297.8 1122.95 1291.03 1126.54 1284.73 1120.02 1283.34 1126.43 1266.38 1126.43 1266.38 1127.25 1262.31 1127.32 1261.95 1128.67 1245.21 1133.22 1245.08 1129.8 1239 1122.55 1226.14 1131.18 1210.01 1131.77 1202.7 1131.87 1201.38 1137.97 1186 1141.47 1182.05 1150.12 1172.32 1150.38 1172.61 1162.13 1166.91 1163.21 1166.39 1163.05 1166.21 1172.27 1155.85 1175.04 1152.74 1172.14 1150.16 1179.71 1139.95 1185.19 1132.55 1183.6 1131.2 1191.19 1125.83 1191.37 1125.71 1203.02 1112.62 1204.04 1111.47 1206.96 1108.2 1210.59 1087.25 1211.05 1086.53 1216.63 1077.7 1214.79 1076.88 1219.92 1067.71 1234.3 1042.03 1233.85 1028.53 1234.42 1027.32 1247.18 999.911 1235.46 989.355 1248.43 981.999 1255.33 978.086 1250.2 974.94 1255.07 967.823 1264.25 954.391 1261.01 952.508 1271.3 939.762 1274.63 935.642 1278.34 919.41 1284.62 918.648 1301.34 916.614 1301.84 906.636 1316.07 915.493 1332.18 925.52 1326.93 930.854 1353.57 955.974 1355.93 958.203 1353.46 960.075 1379.71 987.06 1384.57 992.054 1382.89 993.177 1387.76 998.081 1391.35 1001.69 1392.98 1018.56 1401.06 1027.06 1407.93 1034.29 1410.91 1046.48 1411.36 1048.32 1414.29 1060.26 1416.67 1064.22 1417.42 1065.46 1419.37 1068.71 1416.86 1093.74 1439.42 1078.38 1441.61 1076.89 1442.51 1078.76 1469.26 1064.1 1488.09 1053.78 1489.98 1053.09 1491.9 1052.39 1498.73 1049.89 1507.64 1040.97 1508.84 1039.78 1510.7 1037.91 1511.2 1038.57 1535.03 1019.66 1551.95 1006.23 1555.59 1006.29 1570.79 991.787 1571.93 990.704 1589.35 979.068 1589.63 972.136 1590.7 945.573 1588.39 945.023 1593.67 934.113 1594.65 932.105 1592.89 931.774 1597.88 906.531 1599.75 897.088 1599.16 897.188 1599.22 887.431 1599.73 739.926 1598.72 739.924 1597.97 737.12 1596.43 731.406 1601.04 731.388 1599.33 663.143 1598.29 621.461 1599.42 618.452 1600.78 614.833 1606.78 598.834 1600.02 586.828 1602.42 578.669 1604.34 572.146 1600.35 568.209 1605.03 551.264 1607.65 541.774 1604.6 518.186 1609.02 506.86 1609.64 505.261 1615.73 453.926 1597.67 462.079 1583.39 468.524 1587.97 479.492 1578.43 484.888 1571.64 488.731 1571.52 488.762 1568.62 496.117 1563.93 505.655 1561.14 509.703 1554.07 501.617 1548.74 495.515 1556.85 449.981 1549.4 438.57 1548.76 437.582 1542.69 412.885 1551.17 396.503 1553.87 391.289 1550.1 387.562 1554.87 366.755 1556.56 359.402 1553.52 359.02 1557.67 347.898 1558.68 345.178 1558.59 339.887 1559.96 337.406 1565.86 326.724 1561.4 325.384 1566.14 314.063 1569.42 306.213 1561.87 296.404 1584.96 294.611 1592.88 293.997 1608.74 260.252 1635.74 260.15 1659.12 260.062 1659.41 258.955 1670.04 264.391 1685.69 272.398 1693.36 266.598 1706.28 283.668 1708.02 285.957 1709.24 284.769 1731.32 309.373 1738.34 317.2 1741.29 313.145 1756.65 326.197 1757.85 327.214 1757.97 326.739 1772 338.425 1777.49 342.995 1781.94 345.734 1785.83 354.2 1788 358.933 1804.53 369.33 1815.2 392.421 1829.33 423.013 1829.2 423.11 1830.12 430.387 1830.38 432.42 1832.89 434.332 1833 438.798 1833.03 439.804 1833.02 439.73 1833.27 451.378L1797.34 771.209C1797.58 776.78 1796.91 776.571 1794.98 781.85 1792.7 788.1 1795.28 805.301 1804.04 789.639 1804.8 788.285 1809.17 780.461 1800.93 770.503 1799.73 770.739 1798.53 770.974 1797.34 771.209L1833.27 451.378Z" fill="#2A3F6F" fill-rule="evenodd"/><path d="M2305.63 1000.78C2304.07 1002.38 2298.39 1011.67 2296.12 1006.4 2294.31 1002.2 2313.11 989.148 2323.62 967.722 2324 966.954 2325.22 967.897 2329.98 959.143 2333.64 952.414 2348.51 941.343 2344.23 950.441 2343.14 952.761 2339.82 950.046 2324.95 975.92 2318.62 986.942 2307.35 998.946 2305.63 1000.78Z" fill="#2A3F6F" fill-rule="evenodd"/><path d="M1716 1693.52C1717.91 1654.36 1727.11 1706.58 1722.92 1708.73 1717.81 1711.34 1716.11 1694.32 1716 1693.52Z" fill="#2A3F6F" fill-rule="evenodd"/><path d="M2695.46 1108.94C2693.78 1110.02 2670.04 1125.28 2672.13 1118.07 2673.09 1114.76 2676.08 1118.25 2690.59 1106.54 2697.56 1100.91 2705.99 1102.74 2699.9 1106.82 2699.58 1107.04 2699.57 1106.91 2695.46 1108.94Z" fill="#2A3F6F" fill-rule="evenodd"/><path d="M2488.04 2195.41C2495.05 2199.02 2512.41 2183.75 2512.99 2190.96 2513.05 2191.77 2513.27 2194.52 2503.7 2195.84 2496.95 2196.77 2489.06 2210.52 2486 2197.27L2488.04 2195.41Z" fill="#2A3F6F" fill-rule="evenodd"/><path d="M1712 1410.33C1712.27 1406.65 1712.2 1406.66 1712.29 1406.36 1714.9 1398.19 1718.4 1413.87 1718.57 1414.02 1722.46 1417.35 1725.33 1419.42 1720.35 1420.79 1713.55 1422.66 1712.13 1411.39 1712 1410.33Z" fill="#2A3F6F" fill-rule="evenodd"/><path d="M2645 2158.72C2645.38 2157.29 2647.08 2150.79 2657.71 2144.84 2663.42 2141.65 2661.11 2148.35 2655.28 2151.93 2650.13 2155.09 2650.94 2155.64 2648.14 2161 2648.14 2161 2645 2158.72 2645 2158.72Z" fill="#2A3F6F" fill-rule="evenodd"/><path d="M3036 1961C3024.25 1956.4 3032.95 1941.29 3035.48 1945.85 3036.07 1946.9 3034.12 1947.09 3036 1961Z" fill="#2A3F6F" fill-rule="evenodd"/><path d="M1741.72 1366C1743.33 1370.13 1743.25 1370.14 1743.46 1370.46 1743.97 1371.29 1744.44 1370.17 1745 1371.08 1740.56 1373.61 1743.04 1375.33 1740.62 1380.05 1737.49 1386.17 1731.48 1376.9 1741.72 1366Z" fill="#2A3F6F" fill-rule="evenodd"/><path d="M3007.32 1911.21C3007.2 1909.83 3005.13 1909.13 3005.01 1907.76 3004.49 1901.58 3022.09 1913.32 3017.11 1917.63 3016.4 1918.24 3015.46 1919.06 3007.32 1911.21Z" fill="#2A3F6F" fill-rule="evenodd"/><path d="M2529.49 2189C2530.44 2193.58 2532.82 2194.83 2528.47 2196.87 2527.23 2197.45 2525.78 2197.48 2524.51 2198 2521.51 2199.23 2522.69 2200.1 2522.08 2201.42 2521.93 2201.74 2521.81 2201.61 2518.46 2204 2516.97 2203.13 2515.49 2202.25 2514 2201.38 2514.93 2200.9 2523.37 2196.57 2524.15 2193.07 2524.35 2192.19 2523.03 2191.41 2523.23 2190.54 2526.47 2193.3 2526.38 2193.65 2526.72 2193.51 2528.36 2192.85 2527.84 2189.66 2529.49 2189Z" fill="#2A3F6F" fill-rule="evenodd"/><path d="M1817.66 2036 1818 2038.24C1816.98 2044.63 1816.38 2044.36 1815.5 2050.78 1815.45 2051.2 1811.13 2054.92 1812.16 2046.87 1813.64 2035.33 1815.92 2036.31 1817.66 2036Z" fill="#2A3F6F" fill-rule="evenodd"/><path d="M1854.79 1657.67C1857.8 1639.78 1861.03 1658.73 1861 1659.22 1860.9 1660.65 1848.47 1672.37 1854.79 1657.67Z" fill="#2A3F6F" fill-rule="evenodd"/><path d="M2420.85 849C2427.5 851.63 2421.25 854.027 2423.19 860.279 2421.51 860.853 2419.83 861.426 2418.15 862 2415.33 851.446 2418.25 851.389 2420.85 849Z" fill="#2A3F6F" fill-rule="evenodd"/><path d="M2544.27 2178.34C2549.55 2176.28 2549.52 2176.25 2549.96 2176.16 2554.81 2175.16 2554.99 2179.09 2552.1 2179.76 2546.73 2181.01 2545.66 2186.13 2543.5 2186.78 2537.62 2188.56 2543.9 2178.9 2544.27 2178.34Z" fill="#2A3F6F" fill-rule="evenodd"/><path d="M1818.52 749.36C1818.26 748.784 1812.24 735.535 1819.78 741.573 1822.98 744.133 1824.29 748.948 1824.48 749.667 1827.12 759.417 1818.83 749.717 1818.52 749.36Z" fill="#2A3F6F" fill-rule="evenodd"/><path d="M2990.16 1777C2979.7 1772.62 2992.02 1771.46 2994.13 1770.72 3001.72 1768.09 2998.25 1773.49 2997.95 1773.74 2996.4 1775.02 2990.8 1776.8 2990.16 1777Z" fill="#2A3F6F" fill-rule="evenodd"/><path d="M2503.96 1271C2509.74 1270.09 2509.68 1270.05 2510.18 1270 2513.72 1271 2513.85 1270.82 2514 1271.08 2514 1271.08 2510.45 1276.49 2510.14 1276.96 2508.71 1276.97 2507.29 1276.99 2505.86 1277 2502.28 1273.49 2501.97 1273.64 2502 1273.22 2502.14 1271.57 2503.82 1272.62 2503.96 1271Z" fill="#2A3F6F" fill-rule="evenodd"/><path d="M1843.33 1613.3C1837.89 1621.9 1835.86 1616.18 1836.01 1615.61 1836.16 1615.04 1846.71 1586.86 1843.33 1613.3Z" fill="#2A3F6F" fill-rule="evenodd"/><path d="M1634 2129C1640.7 2132.67 1640.81 2131.98 1646.97 2136.43 1646.98 2137.29 1646.99 2138.14 1647 2139 1640.02 2137.49 1640.41 2136.9 1634.14 2133.58 1634.1 2132.06 1634.05 2130.53 1634 2129Z" fill="#2A3F6F" fill-rule="evenodd"/><path d="M2936.37 1172C2942.67 1183.14 2935.76 1182.14 2935.07 1181.83 2934.56 1181.61 2934.69 1181.47 2930 1176.95 2931.95 1172.96 2932.53 1173.81 2936.37 1172Z" fill="#2A3F6F" fill-rule="evenodd"/><path d="M2522.45 1257C2524.28 1254.81 2523.99 1253.1 2526.52 1254.52 2529.92 1256.43 2526.5 1258.49 2525.82 1259.28 2525.62 1259.52 2520.75 1264.24 2518.44 1263.99 2511.36 1263.24 2521.88 1257.32 2522.45 1257Z" fill="#2A3F6F" fill-rule="evenodd"/><path d="M2094.85 1256.92C2094.66 1251.3 2094.32 1251.43 2094.39 1250.95 2095.3 1244.8 2102.66 1254.53 2096.68 1261.43 2096.43 1261.72 2089.9 1263.98 2094.85 1256.92Z" fill="#2A3F6F" fill-rule="evenodd"/><path d="M1742 1647.87C1739.19 1649.26 1739.68 1650.02 1736.61 1650.54 1736.01 1650.64 1736.22 1650.9 1735.61 1651 1731.43 1646.94 1731.41 1647.01 1731.1 1646.62 1730.57 1645.94 1731.85 1638.1 1742 1647.87Z" fill="#2A3F6F" fill-rule="evenodd"/><path d="M2900.6 1150.68C2903.64 1161.48 2888.25 1148.97 2892.87 1146.16 2893.48 1145.79 2893.73 1145.64 2900.6 1150.68Z" fill="#2A3F6F" fill-rule="evenodd"/><path d="M3051.77 1971C3052.65 1971.6 3053.54 1972.2 3054.42 1972.8 3054.87 1979.12 3055.88 1979.29 3053.33 1985 3050.65 1982.19 3050.51 1979.41 3051.77 1971Z" fill="#2A3F6F" fill-rule="evenodd"/><path d="M2415 849C2413.65 852.981 2414.87 854.403 2410.92 855.118 2404.81 856.223 2403.92 858.236 2402.44 855.964 2400.53 853.03 2404.88 852.778 2415 849Z" fill="#2A3F6F" fill-rule="evenodd"/><path d="M2725 2138C2724.56 2144.94 2721.95 2143.25 2717.15 2148 2717.09 2147.59 2716.66 2144.79 2715 2143.36 2719.68 2139.74 2719 2138.18 2725 2138Z" fill="#2A3F6F" fill-rule="evenodd"/><path d="M1567.15 1435.78C1567.65 1435.26 1566.65 1434.23 1567.14 1433.71 1568.15 1432.67 1569.98 1432.58 1571.12 1431.65 1573.13 1430.03 1573.03 1427.75 1574.51 1429.84 1575.35 1431.03 1575.32 1441.34 1572.69 1439.85 1572.21 1439.58 1572.28 1439.55 1567.15 1435.78Z" fill="#2A3F6F" fill-rule="evenodd"/><path d="M2405 883.367 2404.1 885C2403.17 884.586 2394.77 880.797 2395 876.74 2395.5 868.1 2404.51 882.582 2405 883.367Z" fill="#2A3F6F" fill-rule="evenodd"/><path d="M1653 2146.27C1663.29 2139.26 1664.47 2145.54 1663.87 2146.52 1663.19 2147.63 1657.92 2147.94 1657.39 2147.97 1652.93 2148.24 1653.44 2146.59 1653 2146.27Z" fill="#2A3F6F" fill-rule="evenodd"/><path d="M2358.95 930C2359.97 930.728 2360.98 931.457 2362 932.186 2361.91 932.859 2361.37 936.99 2359.71 940.41 2359.52 940.804 2353.1 945.533 2355.56 936.523 2356.63 934.013 2357.12 934.394 2358.16 931.805L2358.95 930Z" fill="#2A3F6F" fill-rule="evenodd"/><path d="M2558 1242.98C2556.2 1245.18 2556.37 1245.11 2554.38 1247 2552.55 1244.46 2552.1 1245.13 2550.09 1242.55 2549.69 1242.04 2550.38 1234.56 2558 1242.98Z" fill="#2A3F6F" fill-rule="evenodd"/><path d="M2358 931.735C2357.13 934.624 2356.71 934.198 2355.81 937 2349.11 932.756 2349.1 932.658 2349.02 931.906 2348.68 928.875 2353.04 927.856 2353.4 928.016 2355.14 928.793 2356.26 930.958 2358 931.735Z" fill="#2A3F6F" fill-rule="evenodd"/><path d="M2732 1084C2732.07 1083.05 2732.58 1076.22 2738.27 1074.01 2739.28 1073.62 2743.91 1083.69 2732 1084Z" fill="#2A3F6F" fill-rule="evenodd"/><path d="M3001.93 1757C3006.85 1765 3007.05 1764.98 3006.99 1765.72 3006.57 1771.59 3001.78 1764.75 2999 1760.57 2999.98 1759.38 3000.96 1758.19 3001.93 1757Z" fill="#2A3F6F" fill-rule="evenodd"/><path d="M1797.69 771C1797.58 770.127 1795.07 751.545 1800.37 760.373 1800.77 761.037 1800.61 761.105 1801 770.286 1799.9 770.524 1798.8 770.762 1797.69 771Z" fill="#2A3F6F" fill-rule="evenodd"/><path d="M2878 1114.06C2876.5 1116.95 2877.04 1119.02 2874.34 1117.47 2873.11 1116.76 2869.87 1112.05 2869.52 1111.55 2867.75 1108.97 2870.81 1106.37 2873.84 1109.29 2874.2 1109.64 2874.14 1109.65 2878 1114.06Z" fill="#2A3F6F" fill-rule="evenodd"/><path d="M1577.37 1323C1580.23 1333.78 1572.36 1334.44 1573.04 1331.49 1573.24 1330.64 1573.81 1329.95 1574.05 1329.12 1575.03 1325.86 1573.94 1325.82 1574.1 1325.59 1574.91 1324.41 1576.56 1324.18 1577.37 1323Z" fill="#2A3F6F" fill-rule="evenodd"/><path d="M2949.03 1805.19C2936.92 1811.04 2946.74 1800.85 2947.06 1800.63 2954.45 1795.27 2949.22 1804.85 2949.03 1805.19Z" fill="#2A3F6F" fill-rule="evenodd"/><path d="M2574 1226.55C2576.72 1225.01 2576.71 1225.02 2576.94 1224.88 2586.28 1219.44 2582.12 1227.5 2581.83 1227.84 2577.24 1233.14 2574.27 1227.09 2574 1226.55Z" fill="#2A3F6F" fill-rule="evenodd"/><path d="M1567 1352.61 1571.4 1350.51C1575.43 1339.24 1576.37 1358.89 1572.72 1356.85 1572.22 1356.57 1572.3 1356.54 1567 1352.61Z" fill="#2A3F6F" fill-rule="evenodd"/><path d="M2362 923.76C2362.52 923.156 2369.7 914.899 2370.73 919.272 2371.77 923.715 2369.71 922.966 2366.33 926 2365.89 925.465 2366.52 924.418 2366.07 923.883 2366.07 923.883 2362.33 923.77 2362 923.761Z" fill="#2A3F6F" fill-rule="evenodd"/><path d="M1724.95 1359C1723.36 1350.05 1722.67 1350.02 1723.15 1349.44 1725.34 1346.85 1734.02 1356.37 1724.95 1359Z" fill="#2A3F6F" fill-rule="evenodd"/><path d="M2898.73 1133.45C2903.22 1141.37 2894.57 1137.56 2892.35 1132.51 2891.01 1129.46 2893.6 1131.69 2898.73 1133.45Z" fill="#2A3F6F" fill-rule="evenodd"/><path d="M1738.05 1321.18C1738.17 1315.26 1741.04 1317.29 1741.37 1317.52 1743.51 1319.05 1742.95 1324.21 1742.89 1324.8 1742.84 1325.27 1737.44 1331.27 1738.05 1321.18Z" fill="#2A3F6F" fill-rule="evenodd"/><path d="M2831.56 1120.29C2836.94 1117.28 2836.87 1116.84 2837.36 1117.04 2840.93 1118.5 2828.23 1131.94 2831.56 1120.29Z" fill="#2A3F6F" fill-rule="evenodd"/><path d="M2712.46 1162C2711.98 1161.77 2705.57 1158.67 2711.51 1155.22 2712.64 1154.56 2720.42 1155.03 2712.46 1162Z" fill="#2A3F6F" fill-rule="evenodd"/><path d="M2522 2171.51C2527.7 2166.1 2528.42 2166.86 2528.87 2167.33 2531.8 2170.38 2528.71 2170.31 2523.11 2176 2522.74 2174.5 2522.37 2173.01 2522 2171.51Z" fill="#2A3F6F" fill-rule="evenodd"/><path d="M2929 1821.21C2927.13 1823.87 2927.23 1823.8 2926.55 1827 2920.42 1820.67 2920.85 1819.52 2921.14 1818.77 2921.38 1818.13 2921.97 1816.58 2929 1821.21Z" fill="#2A3F6F" fill-rule="evenodd"/><path d="M2056.75 1108C2052.87 1104.04 2055.89 1102.35 2061.52 1103.22 2062.07 1103.31 2066.5 1107.16 2056.75 1108Z" fill="#2A3F6F" fill-rule="evenodd"/><path d="M2730 2133.68C2737.56 2130.13 2739.95 2126.41 2740 2131.48 2740.03 2134.04 2732.99 2135.83 2732.31 2136L2730 2133.68Z" fill="#2A3F6F" fill-rule="evenodd"/><path d="M2078 1245.43C2082.08 1240.39 2081.85 1240.01 2082.4 1240 2083.14 1239.99 2086.66 1240.94 2080.08 1249 2078.02 1245.74 2078.25 1245.65 2078 1245.43Z" fill="#2A3F6F" fill-rule="evenodd"/><path d="M2056.05 1091C2057.32 1091.19 2057.81 1092.96 2059.07 1093.15 2060.43 1093.35 2061.63 1092.09 2063 1092.02 2065.19 1091.91 2064.42 1099.21 2054 1094.3L2056.05 1091Z" fill="#2A3F6F" fill-rule="evenodd"/><path d="M3035.71 2003.37C3038.44 2001.37 3038.55 2000.25 3039.79 2001.58 3040.59 2002.45 3038.89 2006.31 3038.72 2006.69 3038.58 2007.02 3033.09 2010.95 3035.71 2003.37Z" fill="#2A3F6F" fill-rule="evenodd"/><path d="M1647 2136.56C1650.66 2134.26 1650.59 2134.17 1650.96 2134.08 1654.98 2133.05 1656.21 2142.75 1647.03 2139.22 1647.02 2138.33 1647.01 2137.44 1647 2136.56Z" fill="#2A3F6F" fill-rule="evenodd"/><path d="M2929.49 1821C2930.99 1821.02 2932.5 1821.05 2934 1821.07 2930.08 1831.54 2927.43 1827.04 2927 1827.02 2927.7 1823.69 2927.58 1823.77 2929.49 1821Z" fill="#2A3F6F" fill-rule="evenodd"/><path d="M1739.4 1358C1729.11 1349.22 1740.07 1349.94 1740.18 1350.06 1741.75 1351.76 1740.82 1351.97 1739.4 1358Z" fill="#2A3F6F" fill-rule="evenodd"/><path d="M1161.38 1378C1167.81 1381.54 1167.88 1381.98 1167.99 1382.65 1168.11 1383.36 1166.43 1388.92 1160 1379.94L1161.38 1378Z" fill="#2A3F6F" fill-rule="evenodd"/><path d="M1837.5 737C1837.81 742.265 1839.3 743.264 1834.97 746 1834.31 743.674 1833.66 741.349 1833 739.023 1834.08 738.515 1833.97 738.806 1835.02 738.316 1835.22 738.22 1835.02 738.316 1837.5 737Z" fill="#2A3F6F" fill-rule="evenodd"/><path d="M1735 1583.17C1735.06 1582.7 1736.84 1568.15 1739.62 1579.03 1740.75 1583.46 1739.38 1585.17 1735 1583.17Z" fill="#2A3F6F" fill-rule="evenodd"/><path d="M1850.95 1530C1849.78 1527.03 1849.29 1526.6 1851.89 1524.69 1858.37 1519.89 1857.5 1526.75 1855.69 1527.71 1854.14 1528.53 1852.5 1529.18 1850.95 1530Z" fill="#2A3F6F" fill-rule="evenodd"/><path d="M2134.9 987C2135.78 988.488 2136.66 989.976 2137.54 991.464 2137.81 995.891 2138.72 996.53 2136.86 996.932 2135.99 997.12 2132.34 997.629 2134.9 987Z" fill="#2A3F6F" fill-rule="evenodd"/><path d="M2530 2188.45C2528.23 2189.11 2528.79 2192.31 2527.02 2192.98 2526.65 2193.11 2526.75 2192.76 2523.25 2189.99 2523.13 2187.62 2522.28 2187 2524.62 2186.33 2527.74 2185.43 2527.5 2186.44 2530 2188.45Z" fill="#2A3F6F" fill-rule="evenodd"/><path d="M2655 2158.23C2659.69 2153.93 2659.48 2153.75 2659.98 2153.52 2666.07 2150.74 2662.01 2160.09 2656.08 2158.9 2655.66 2158.81 2655.41 2158.32 2655 2158.23Z" fill="#2A3F6F" fill-rule="evenodd"/><path d="M1722.98 1295.95C1722.56 1296.47 1723.28 1297.3 1722.87 1297.83 1722.87 1297.83 1718.64 1297.99 1718.27 1298 1717.95 1297.71 1713.22 1293.38 1718.44 1293.03 1721.66 1292.81 1721.04 1293.83 1722.98 1295.95Z" fill="#2A3F6F" fill-rule="evenodd"/><path d="M2543.75 2175.38C2539.97 2177.79 2540.04 2178.1 2539.67 2177.98 2532.72 2175.71 2549.91 2167.1 2546.56 2173.08 2545.96 2174.15 2544.35 2174.3 2543.74 2175.38Z" fill="#2A3F6F" fill-rule="evenodd"/><path d="M3003 1913.68C3002.47 1913.96 2995.23 1917.76 2996.07 1911.03 2996.15 1910.39 2997.7 1905.51 3003 1913.68Z" fill="#2A3F6F" fill-rule="evenodd"/><path d="M2189.18 926.824C2192.09 926.235 2192.24 925.357 2193.57 926.73 2195.93 929.144 2187.71 934.943 2189.18 926.824Z" fill="#2A3F6F" fill-rule="evenodd"/><path d="M2377 908.104C2375.72 909.069 2374.44 910.035 2373.16 911 2372.77 910.61 2364.58 902.436 2372.31 904.267 2373.01 904.435 2376.64 907.776 2377 908.104Z" fill="#2A3F6F" fill-rule="evenodd"/><path d="M2149.43 979C2149.34 978.332 2148.11 978.313 2148.02 977.645 2147.93 976.987 2147.94 977.06 2153.9 972.175 2154.01 972.267 2156.11 971.063 2156 973.923 2155.79 979.035 2153.93 977.643 2149.43 979Z" fill="#2A3F6F" fill-rule="evenodd"/><path d="M2390.38 888.421C2390.64 888.154 2396.85 881.625 2394.45 887.332 2392.24 892.602 2392.98 892.994 2392.67 893.334 2392.4 893.636 2388.85 896.273 2390.38 888.421Z" fill="#2A3F6F" fill-rule="evenodd"/><path d="M1715.29 1357.9C1715.21 1357.44 1714.26 1352.42 1716.32 1352.02 1718.42 1351.61 1723.95 1358.91 1715.29 1357.9Z" fill="#2A3F6F" fill-rule="evenodd"/><path d="M2459 1289.36C2459.41 1288.99 2463.36 1285.5 2464.83 1286.06 2465.31 1286.24 2468.73 1289.34 2461.02 1292 2461.02 1292 2459 1289.36 2459 1289.36Z" fill="#2A3F6F" fill-rule="evenodd"/><path d="M2761 906.486C2760.69 906.938 2757.3 911.828 2754.69 909.257 2754.3 908.871 2751.48 902.069 2761 906.486Z" fill="#2A3F6F" fill-rule="evenodd"/><path d="M2504 1271C2504.24 1256.17 2509.8 1269.43 2510 1269.91 2509.52 1269.96 2509.57 1270.01 2504 1271Z" fill="#2A3F6F" fill-rule="evenodd"/><path d="M2376.27 908C2378.56 911.278 2378.79 912.033 2375.66 914.381 2373.12 916.283 2372.13 913.225 2372.03 912.925 2371.81 912.251 2372.83 911.554 2372.61 910.88 2373.83 909.92 2375.05 908.96 2376.27 908Z" fill="#2A3F6F" fill-rule="evenodd"/><path d="M1757 1156C1756.4 1155.96 1747.12 1155.42 1752.88 1150.33 1753.31 1149.95 1755.76 1148.67 1757 1156Z" fill="#2A3F6F" fill-rule="evenodd"/><path d="M2814.4 1150.04C2814.91 1150.42 2815.75 1149.74 2816.27 1150.12 2816.81 1150.52 2819.16 1152.68 2811 1157 2811.34 1155.39 2811.68 1153.77 2812.02 1152.16L2814.4 1150.04Z" fill="#2A3F6F" fill-rule="evenodd"/><path d="M2238.83 846 2241 847.521C2240.81 847.793 2238.67 850.921 2238.67 850.921 2238.45 851.098 2238.4 850.922 2235 850.929 2236.43 848.075 2236.36 848.196 2238.83 846Z" fill="#2A3F6F" fill-rule="evenodd"/><path d="M1811 731.407C1809.58 740.087 1803.96 730.499 1806.78 729.041 1807.12 728.862 1807.08 729.21 1811 731.407Z" fill="#2A3F6F" fill-rule="evenodd"/><path d="M2981 1792.63C2980.7 1793.1 2979.67 1792.67 2979.37 1793.14 2979.37 1793.14 2980 1796.69 2980.05 1797 2975.41 1795.62 2975.25 1795.97 2974.12 1794.84 2969.55 1790.33 2980.43 1792.52 2981 1792.63Z" fill="#2A3F6F" fill-rule="evenodd"/><path d="M1692 2169.86C1692.44 2169.55 1700.53 2163.87 1698.74 2169.42 1697.41 2173.57 1695.85 2171.95 1692 2169.86Z" fill="#2A3F6F" fill-rule="evenodd"/><path d="M1737.57 1610C1734.99 1607.63 1732.26 1607.26 1735.42 1605.47 1737.33 1604.39 1739.25 1605.5 1739.51 1605.66 1742.61 1607.46 1740.34 1607.9 1737.57 1610Z" fill="#2A3F6F" fill-rule="evenodd"/><path d="M2729.54 2133 2732 2135.18C2730.73 2136.66 2731.83 2137.57 2728.76 2138.96 2728.48 2139.09 2728.48 2138.9 2725 2138.11 2726.51 2136.4 2728.03 2134.7 2729.54 2133Z" fill="#2A3F6F" fill-rule="evenodd"/><path d="M2487.87 1275.66C2488.96 1286.33 2482.95 1277.83 2483 1277.2 2483.26 1273.97 2484.6 1275.09 2487.87 1275.66Z" fill="#2A3F6F" fill-rule="evenodd"/><path d="M1720.71 1284.21C1719.92 1284.65 1721.57 1286.18 1720.78 1286.61 1716.98 1288.71 1711.17 1281.54 1718.56 1282.02 1718.83 1282.04 1718.72 1282.19 1720.71 1284.21Z" fill="#2A3F6F" fill-rule="evenodd"/><path d="M1719.72 1563.53C1721.29 1571.5 1715.76 1566.79 1716.01 1564.75 1716.35 1561.95 1717.31 1563.29 1719.72 1563.53Z" fill="#2A3F6F" fill-rule="evenodd"/><path d="M2763.93 894C2765.28 894.866 2766.64 895.732 2768 896.598 2763.14 899.044 2761.11 902.021 2761 898.1 2760.98 897.335 2761.93 896.739 2761.91 895.975L2763.93 894Z" fill="#2A3F6F" fill-rule="evenodd"/><path d="M1567 1486.17C1567.62 1485.81 1567.47 1484.65 1568.09 1484.3 1571.97 1482.07 1571.97 1493.21 1568.09 1490.6 1567.79 1490.4 1568.01 1490.28 1567 1486.17Z" fill="#2A3F6F" fill-rule="evenodd"/><path d="M2116.05 1277C2116.36 1277.54 2116.83 1277.96 2117.15 1278.51 2121.15 1285.47 2109.64 1280.42 2112.45 1277.17 2112.64 1276.94 2112.71 1277.15 2116.05 1277Z" fill="#2A3F6F" fill-rule="evenodd"/><path d="M1633.84 2129C1633.9 2130.57 1633.95 2132.13 1634 2133.7 1633.11 2133.66 1632.53 2135.04 1631.64 2135 1631.14 2134.98 1622.45 2130.46 1633.84 2129Z" fill="#2A3F6F" fill-rule="evenodd"/><path d="M1723.61 1626.69C1725.5 1634.45 1719.92 1629.75 1720 1627.79 1720.12 1624.98 1721.24 1626.2 1723.61 1626.69Z" fill="#2A3F6F" fill-rule="evenodd"/><path d="M1848.25 1587.59C1850.92 1586.41 1851.38 1585.01 1852.67 1587 1854.71 1590.15 1846.47 1593.86 1848.25 1587.59Z" fill="#2A3F6F" fill-rule="evenodd"/><path d="M2540.04 1846.55C2543.4 1846.1 2543.45 1845.88 2543.67 1846.07 2544.14 1846.48 2544.12 1849.43 2543.52 1850 2543.24 1850.27 2539.57 1853.54 2540.04 1846.55Z" fill="#2A3F6F" fill-rule="evenodd"/><path d="M3002 1757.71C3000.89 1758.81 2999.77 1759.9 2998.66 1761 2998.46 1760.88 2996.21 1759.54 2996.21 1759.54 2995.19 1755.09 2998.01 1755.26 3002 1757.71Z" fill="#2A3F6F" fill-rule="evenodd"/><path d="M2173.15 950.766C2172.46 950.819 2172.13 951.932 2171.44 951.985 2165.22 952.462 2172.7 941.602 2173.97 946.089 2174.08 946.454 2173.91 946.435 2173.15 950.766Z" fill="#2A3F6F" fill-rule="evenodd"/><path d="M1544.45 1098C1543.06 1094.95 1542.05 1094.55 1544.43 1092.19 1547.06 1089.58 1549.11 1091.58 1547.33 1095.06 1546.34 1096.99 1546.01 1096.41 1544.45 1098Z" fill="#2A3F6F" fill-rule="evenodd"/><path d="M1717 1640.34C1717.22 1639.83 1719.64 1634.15 1722.22 1636.62 1722.6 1636.98 1725.5 1642.95 1717 1640.34Z" fill="#2A3F6F" fill-rule="evenodd"/><path d="M2138.93 982C2139.22 986.878 2138.62 986.59 2137.14 991 2136.43 989.491 2135.71 987.981 2135 986.472 2137.61 983.37 2137.5 983.354 2138.93 982Z" fill="#2A3F6F" fill-rule="evenodd"/><path d="M1848 1544.14C1839.24 1549.81 1844.51 1540.75 1845.17 1540.42 1847.91 1539.09 1847.27 1541.05 1848 1544.14Z" fill="#2A3F6F" fill-rule="evenodd"/><path d="M2920.03 1829C2921.22 1832.06 2923.59 1833.36 2920.4 1834 2919.79 1834.12 2908.8 1830.62 2920.03 1829Z" fill="#2A3F6F" fill-rule="evenodd"/><path d="M2776.32 1138C2778.76 1141.02 2780.9 1142.74 2776.27 1142.99 2773.17 1143.16 2772.46 1139.93 2773.36 1138.93 2773.99 1138.24 2775.7 1138.7 2776.32 1138Z" fill="#2A3F6F" fill-rule="evenodd"/><path d="M1836 1847.62C1832.02 1848.35 1830.22 1848.43 1831.32 1844.07 1832.49 1839.38 1833.72 1843.58 1836 1847.62Z" fill="#2A3F6F" fill-rule="evenodd"/><path d="M2435.27 849C2435.58 851.137 2437.7 849.664 2437.99 851.679 2438.03 851.942 2438.09 852.393 2436.04 854.386 2425.3 864.824 2435.04 849.37 2435.27 849Z" fill="#2A3F6F" fill-rule="evenodd"/><path d="M2505.56 1277.04C2507.04 1277.03 2508.52 1277.02 2510 1277 2509.62 1280.46 2509.09 1280.51 2505.64 1281 2504.81 1279 2504.8 1279.1 2505.56 1277.04Z" fill="#2A3F6F" fill-rule="evenodd"/><path d="M2934.96 1818C2925.97 1813.47 2935.01 1812.63 2935.62 1813.13 2938.87 1815.8 2935.42 1817.56 2934.96 1818Z" fill="#2A3F6F" fill-rule="evenodd"/><path d="M1859.86 1688.45C1861.03 1694.67 1854.53 1691.22 1855.03 1689.33 1855.6 1687.14 1856.75 1688.27 1859.86 1688.45Z" fill="#2A3F6F" fill-rule="evenodd"/><path d="M2959 2097.77C2959.02 2093.8 2959.5 2091.57 2962.65 2094.02 2969.43 2099.3 2959.41 2097.83 2959 2097.77Z" fill="#2A3F6F" fill-rule="evenodd"/><path d="M1770 2116.61C1773.01 2114.3 1772.92 2114.15 1773.25 2114.11 1783.76 2113.13 1773.6 2118.81 1773.27 2119 1772.18 2118.2 1771.09 2117.4 1770 2116.61Z" fill="#2A3F6F" fill-rule="evenodd"/><path d="M2779 1135.38C2779.51 1135.27 2779.96 1133.1 2783.36 1134.43 2785.88 1135.42 2784.79 1137.95 2784.61 1138.11 2782.18 1140.28 2782.24 1138.14 2779 1135.38Z" fill="#2A3F6F" fill-rule="evenodd"/><path d="M2406.36 861.033C2410.25 860.834 2412.4 861.477 2409.98 864.449 2409.73 864.756 2404.62 869.376 2406.36 861.033Z" fill="#2A3F6F" fill-rule="evenodd"/><path d="M3028 1979.42C3022.93 1988.31 3024.01 1977.87 3024.29 1977.66 3026.33 1976.15 3026.37 1977.43 3028 1979.42Z" fill="#2A3F6F" fill-rule="evenodd"/><path d="M2976 1776.26C2976.67 1775.8 2976.18 1774.63 2976.86 1774.16 2977.55 1773.68 2980.41 1774.35 2980.68 1774.99 2980.81 1775.31 2982.61 1780.68 2976 1776.26Z" fill="#2A3F6F" fill-rule="evenodd"/><path d="M1524.68 1136C1528.26 1137.48 1530.62 1137.91 1527.65 1140.26 1527.32 1140.53 1522.19 1143.31 1524.68 1136Z" fill="#2A3F6F" fill-rule="evenodd"/><path d="M1860.23 1675C1860.29 1675.09 1864.2 1675.4 1862.63 1678.97 1860.72 1683.32 1859.84 1679.45 1859 1678.69 1859.41 1677.46 1859.82 1676.23 1860.23 1675Z" fill="#2A3F6F" fill-rule="evenodd"/><path d="M1752.19 1752C1751.78 1751.33 1750.63 1751.71 1750.22 1751.04 1749.41 1749.72 1750.91 1746.25 1753.58 1747.15 1756.55 1748.15 1754.24 1749.22 1752.19 1752Z" fill="#2A3F6F" fill-rule="evenodd"/><path d="M1604.64 2091C1604.4 2090.72 1601.11 2086.86 1604.59 2086 1604.93 2085.92 1614.31 2088.11 1604.64 2091Z" fill="#2A3F6F" fill-rule="evenodd"/><path d="M3039.7 2032.9C3040.19 2033.09 3040.48 2031.83 3040.97 2032.02 3041.61 2032.26 3044.04 2036.07 3042.49 2037.28 3042.16 2037.54 3037.21 2040.32 3039.7 2032.9Z" fill="#2A3F6F" fill-rule="evenodd"/><path d="M1856.3 1676C1848.37 1668.88 1857.17 1669.95 1857.5 1670.22 1857.89 1670.54 1857.97 1672.03 1857.98 1672.19 1858.17 1675.5 1856.89 1674.66 1856.3 1676Z" fill="#2A3F6F" fill-rule="evenodd"/><path d="M2387 887C2385.38 888.678 2386.63 889.186 2385.08 890.777 2384.99 890.879 2384.68 891.192 2383.29 890.831 2382.87 890.722 2379.03 887.082 2387 887Z" fill="#2A3F6F" fill-rule="evenodd"/><path d="M2389 897.916C2388.19 898.512 2388.33 899.868 2387.52 900.463 2385.75 901.773 2382.46 900.564 2383.08 898.152 2384.02 894.468 2385.49 896.289 2389 897.916Z" fill="#2A3F6F" fill-rule="evenodd"/><path d="M2753 2121.59C2751.73 2129.26 2746.42 2124.95 2747.05 2123.3 2748.41 2119.75 2749.38 2121.29 2753 2121.59Z" fill="#2A3F6F" fill-rule="evenodd"/><path d="M2051.57 1125.69C2044.94 1127.36 2049.31 1121.79 2050.7 1122.01 2052.83 1122.34 2051.74 1123.3 2051.57 1125.69Z" fill="#2A3F6F" fill-rule="evenodd"/><path d="M1799 714.122C1802.93 707.309 1803 713.706 1803 714.129 1802.96 718.395 1801.09 717.496 1799 714.122Z" fill="#2A3F6F" fill-rule="evenodd"/><path d="M1583 1039C1582.36 1039.78 1583.3 1041.04 1582.66 1041.82 1579.05 1046.24 1578.24 1042.62 1578.18 1042.32 1577.44 1039.02 1578.98 1039.2 1583 1039Z" fill="#2A3F6F" fill-rule="evenodd"/><path d="M1861 745.843C1858.01 748.177 1856.11 749.213 1855.19 745.849 1854.23 742.367 1857 744.653 1861 745.843Z" fill="#2A3F6F" fill-rule="evenodd"/><path d="M2508 2180.11C2513.72 2179.54 2513.04 2181.39 2512.9 2181.77 2511.46 2185.68 2509.36 2184.02 2508 2180.11Z" fill="#2A3F6F" fill-rule="evenodd"/><path d="M1813.67 2013C1809.86 2010.9 1808.4 2008.66 1812.3 2007.08 1813.48 2006.6 1814.36 2008.5 1814.45 2008.71 1816.01 2012.07 1813.76 2012.51 1813.67 2013Z" fill="#2A3F6F" fill-rule="evenodd"/><path d="M1629 2121.1C1624.09 2128.29 1624.83 2119.89 1625.43 2119.52 1627.5 2118.27 1627.41 2119.45 1629 2121.1Z" fill="#2A3F6F" fill-rule="evenodd"/><path d="M1739.56 1420C1743.91 1425.75 1737 1424.12 1737 1422.35 1737 1422.05 1737.19 1422.18 1739.56 1420Z" fill="#2A3F6F" fill-rule="evenodd"/><path d="M1833 1881C1832.78 1885.37 1833.1 1885.46 1832.76 1885.71 1831.61 1886.56 1831.3 1885.08 1830.05 1886 1828 1882.73 1828.93 1882.07 1833 1881Z" fill="#2A3F6F" fill-rule="evenodd"/><path d="M2521.6 2170 2521.78 2171.85C2522.18 2173.23 2522.59 2174.61 2523 2175.99 2522.54 2175.95 2522.68 2177.04 2522.22 2177 2521.76 2176.95 2522.98 2175.95 2518.4 2173.15 2517.74 2172.75 2516.66 2173.43 2516 2173.03 2519.31 2172.12 2519.19 2172.03 2521.6 2170Z" fill="#2A3F6F" fill-rule="evenodd"/><path d="M1721.75 1394.39C1723.23 1400.87 1717.64 1397 1718.02 1395.22 1718.45 1393.19 1719.26 1394.28 1721.75 1394.39Z" fill="#2A3F6F" fill-rule="evenodd"/><path d="M1857 1719.5C1858.71 1717.98 1858.86 1717.48 1860.87 1718.63 1861.35 1718.9 1860.57 1727.73 1857 1719.5Z" fill="#2A3F6F" fill-rule="evenodd"/><path d="M1577.13 1209C1577.12 1208.69 1577 1205.13 1577 1205.13 1577.91 1204.28 1585.45 1207.86 1577.13 1209Z" fill="#2A3F6F" fill-rule="evenodd"/><path d="M1603 885.174C1603.98 884.569 1603.62 882.87 1604.6 882.265 1607.76 880.32 1607.91 889.798 1604.4 887.693 1603.54 887.18 1603.86 885.687 1603 885.174Z" fill="#2A3F6F" fill-rule="evenodd"/><path d="M2954 1797.25C2960.99 1789.03 2958.71 1798.96 2958.4 1799.22 2957.1 1800.29 2956.38 1799.97 2956.22 1799.9 2954.52 1799.14 2955.8 1798.06 2954 1797.25Z" fill="#2A3F6F" fill-rule="evenodd"/><path d="M1131 1260.01C1140.42 1256.15 1133.96 1264.68 1132.2 1263.96 1131.86 1263.82 1132.11 1263.67 1131 1260.01Z" fill="#2A3F6F" fill-rule="evenodd"/><path d="M2761 2121.11C2756.13 2128.58 2756.86 2119.25 2757.36 2118.83 2759.58 2116.92 2759.64 2118.56 2761 2121.11Z" fill="#2A3F6F" fill-rule="evenodd"/><path d="M2606 1098.72C2609.27 1091.81 2611.15 1096.58 2610.99 1096.96 2609.8 1099.76 2609.16 1098.93 2606 1098.72Z" fill="#2A3F6F" fill-rule="evenodd"/><path d="M2666.48 2135C2669.58 2135.75 2669.69 2135.51 2669.83 2135.81 2671.18 2138.97 2664.15 2141.36 2666.48 2135Z" fill="#2A3F6F" fill-rule="evenodd"/><path d="M1743.89 1342C1737.56 1337.09 1743.53 1336.99 1743.96 1337 1747.68 1337.13 1745.49 1338.76 1743.89 1342Z" fill="#2A3F6F" fill-rule="evenodd"/><path d="M1577.19 1268C1576.22 1266.34 1575.09 1267.79 1574.13 1266.15 1574.03 1265.98 1573.69 1265.39 1574.74 1263.8 1575.52 1262.61 1579.75 1261.93 1577.19 1268Z" fill="#2A3F6F" fill-rule="evenodd"/><path d="M2179 936.299C2179.18 935.966 2184.02 927.135 2182.8 935.789 2182.31 939.311 2181.3 937.961 2179 936.299Z" fill="#2A3F6F" fill-rule="evenodd"/><path d="M2670 2147.91C2669.42 2147.95 2669.21 2148.96 2668.62 2148.99 2663.88 2149.29 2666.4 2141.81 2669.67 2144.64 2669.87 2144.81 2669.69 2144.88 2670 2147.91Z" fill="#2A3F6F" fill-rule="evenodd"/><path d="M1722.62 1296C1732.23 1307.92 1718.32 1298.44 1718 1298.2 1718.36 1298.19 1722.51 1298.01 1722.51 1298.01 1722.92 1297.45 1722.21 1296.56 1722.62 1296Z" fill="#2A3F6F" fill-rule="evenodd"/><path d="M2971.77 1786C2971.63 1785.24 2970.18 1785.06 2970.05 1784.3 2969.54 1781.43 2973.27 1782.03 2973.61 1782.09 2979.77 1783.08 2972.11 1785.87 2971.77 1786Z" fill="#2A3F6F" fill-rule="evenodd"/><path d="M2597 2169.31C2601.64 2162.05 2602.14 2168.94 2601.97 2169.28 2601.14 2170.99 2599.37 2171 2599.1 2171 2597.48 2171.01 2598.6 2169.3 2597 2169.31Z" fill="#2A3F6F" fill-rule="evenodd"/><path d="M2979.04 1156.09C2982.54 1156.21 2984.28 1155.15 2983.96 1158.06 2983.74 1160.11 2979.6 1160.33 2979.2 1159.66 2978.57 1158.59 2979.67 1157.16 2979.04 1156.09Z" fill="#2A3F6F" fill-rule="evenodd"/><path d="M1730 1626.08C1732 1622.32 1734.86 1621.69 1735 1625.94 1735.06 1627.98 1734.14 1627.28 1731.32 1628L1730 1626.08Z" fill="#2A3F6F" fill-rule="evenodd"/><path d="M1571 1397.59C1572.84 1396.36 1572.58 1393.73 1573.81 1395.72 1574.53 1396.88 1573.1 1405.74 1571 1397.59Z" fill="#2A3F6F" fill-rule="evenodd"/><path d="M1161 1378.46 1159.53 1380C1159.14 1379.85 1151.29 1376.88 1157.19 1376.06 1158.85 1375.83 1159.67 1376.34 1159.84 1376.45 1161.01 1377.19 1159.75 1377.67 1161 1378.46Z" fill="#2A3F6F" fill-rule="evenodd"/><path d="M1293 925.552C1296.91 922.572 1300.12 918.241 1298.63 923.391 1297.51 927.257 1296.44 925.736 1293 925.552Z" fill="#2A3F6F" fill-rule="evenodd"/><path d="M3021.35 1754C3010.67 1753.81 3019.21 1750 3019.62 1750 3023.05 1749.98 3021.94 1751.25 3021.35 1754Z" fill="#2A3F6F" fill-rule="evenodd"/><path d="M1587.47 1038C1594.18 1041.16 1589.34 1042.99 1588.96 1043 1585.95 1043.08 1587.24 1041.48 1587.47 1038Z" fill="#2A3F6F" fill-rule="evenodd"/><path d="M1470.93 1271C1465.66 1262.63 1472.82 1265.36 1473.17 1265.66 1474.48 1266.82 1473.87 1268.29 1473.78 1268.5 1472.98 1270.4 1471.73 1269.1 1470.93 1271Z" fill="#2A3F6F" fill-rule="evenodd"/><path d="M1770.19 2116C1771.13 2116.73 1772.07 2117.46 1773 2118.2 1769.79 2120.24 1768.41 2124.33 1768.04 2120.27 1767.81 2117.81 1768.58 2118.21 1770.2 2116Z" fill="#2A3F6F" fill-rule="evenodd"/><path d="M1809.32 970.157C1812.84 970.111 1812.91 969.861 1813.12 970.107 1813.41 970.431 1816.52 975.784 1809 973.382L1809.33 970.157Z" fill="#2A3F6F" fill-rule="evenodd"/><path d="M2497.99 1277C2494.71 1273.74 2492.87 1273.64 2494.77 1271.85 2498.39 1268.43 2497.98 1276.44 2497.99 1277Z" fill="#2A3F6F" fill-rule="evenodd"/><path d="M1293 925.255C1289.79 926.567 1287.96 928.442 1288 925.208 1288 924.934 1288.04 922.132 1291.25 923.271 1292.13 923.586 1292.11 924.941 1293 925.255Z" fill="#2A3F6F" fill-rule="evenodd"/><path d="M1751 2152.89C1748.13 2154.96 1746.97 2156.39 1746.04 2152.83 1745.62 2151.2 1748.53 2149.26 1749.84 2150.28 1750.55 2150.84 1750.29 2152.33 1751 2152.89Z" fill="#2A3F6F" fill-rule="evenodd"/><path d="M1782 987C1782.19 983.597 1781.98 983.484 1782.21 983.334 1782.41 983.201 1783.6 982.426 1785.14 983.823 1787.44 985.922 1784.69 985.483 1782 987Z" fill="#2A3F6F" fill-rule="evenodd"/><path d="M1579.08 1223C1577.22 1218.86 1576.8 1218.83 1577.08 1218.54 1577.35 1218.25 1584.26 1216.11 1579.08 1223Z" fill="#2A3F6F" fill-rule="evenodd"/><path d="M1856 1567C1855.94 1567.42 1854.84 1575.07 1852.48 1570.61 1850.99 1567.78 1853.2 1568.52 1856 1567Z" fill="#2A3F6F" fill-rule="evenodd"/><path d="M1749.92 1511.86C1749.36 1511.29 1748.28 1512.4 1747.71 1511.84 1744.99 1509.12 1750.92 1504.09 1751 1509.2 1751.02 1510.19 1749.91 1510.87 1749.92 1511.86Z" fill="#2A3F6F" fill-rule="evenodd"/><path d="M2791 863.761C2791.49 861.311 2790.4 860.416 2793.12 860.067 2796.54 859.627 2794.53 861.41 2793.07 864L2791 863.761Z" fill="#2A3F6F" fill-rule="evenodd"/><path d="M1834.11 497C1834.02 496.763 1833 494.036 1833 494.036 1833.69 492.031 1836.6 490.812 1836.9 491.024 1837.72 491.597 1837.18 493.36 1838 493.934L1834.11 497Z" fill="#2A3F6F" fill-rule="evenodd"/><path d="M2885 2106.38C2883.06 2106.33 2883.91 2108.04 2882 2108 2881.72 2107.99 2880.1 2107.96 2879.06 2106.25 2878.83 2105.86 2879.02 2101.31 2885 2106.38Z" fill="#2A3F6F" fill-rule="evenodd"/><path d="M2690 1160C2690.46 1156.71 2690.6 1154.86 2693.76 1156.77 2696.94 1158.69 2693.38 1158.51 2690 1160Z" fill="#2A3F6F" fill-rule="evenodd"/><path d="M1757.26 1166C1751.33 1162.25 1758.93 1161.15 1759 1162.65 1759.06 1163.87 1757.2 1164.78 1757.26 1166Z" fill="#2A3F6F" fill-rule="evenodd"/><path d="M1746.13 1537C1743.97 1534.06 1742.7 1532.22 1746.09 1532.01 1749.44 1531.81 1747.68 1533.75 1746.13 1537Z" fill="#2A3F6F" fill-rule="evenodd"/><path d="M1444 1371.62C1442.67 1372.41 1441.33 1373.21 1440 1374 1441.17 1371.19 1441.36 1370.26 1444 1371.62Z" fill="#2A3F6F" fill-rule="evenodd"/><path d="M2989 1783.08C2996.65 1782.31 2991.08 1787.28 2990.53 1786.99 2990.22 1786.83 2990.41 1786.7 2989 1783.08Z" fill="#2A3F6F" fill-rule="evenodd"/><path d="M2239 845.392C2240.12 844.828 2239.94 842.993 2241.06 842.429 2245.24 840.315 2241.39 846.681 2241.2 847L2239 845.392Z" fill="#2A3F6F" fill-rule="evenodd"/><path d="M1574.77 1271C1574.84 1272.33 1574.92 1273.67 1575 1275 1574 1274.2 1573 1273.4 1572 1272.61 1572.92 1272.07 1573.84 1271.54 1574.77 1271Z" fill="#2A3F6F" fill-rule="evenodd"/><path d="M3030 1921C3026.9 1920.88 3024.99 1921.04 3026.57 1918.18 3028.15 1915.3 3028.35 1918.27 3030 1921Z" fill="#2A3F6F" fill-rule="evenodd"/><path d="M2727 1162.54 2726.32 1164.7C2725.4 1164.62 2724.76 1166.08 2723.84 1166 2723.27 1165.95 2722.49 1163.02 2723.46 1162.07 2723.67 1161.87 2723.73 1162.11 2727 1162.54Z" fill="#2A3F6F" fill-rule="evenodd"/><path d="M2706.78 1093C2707.19 1093.85 2708.55 1093.76 2708.96 1094.6 2709.25 1095.21 2707.9 1097.84 2707.15 1097.94 2703.69 1098.4 2705.04 1096.14 2706.78 1093Z" fill="#2A3F6F" fill-rule="evenodd"/><path d="M1803 688.536C1801.96 689.028 1801.91 690.481 1800.87 690.973 1800.16 691.312 1798.21 688.367 1799.35 686.78 1800.88 684.665 1800.64 687.399 1803 688.536Z" fill="#2A3F6F" fill-rule="evenodd"/><path d="M2837 1142.11 2839.52 1138C2839.6 1138.21 2841.63 1138.15 2840.8 1141.07 2839.98 1143.97 2839.28 1142.97 2837 1142.11Z" fill="#2A3F6F" fill-rule="evenodd"/><path d="M1830 449.545C1829.21 452.66 1829.41 452.807 1829.15 452.909 1826.67 453.891 1825.83 446.564 1829.4 448.254 1829.83 448.458 1829.57 449.341 1830 449.545Z" fill="#2A3F6F" fill-rule="evenodd"/><path d="M1741.75 1302.34C1741.72 1303.13 1743.03 1303.45 1743 1304.24 1742.82 1308.71 1737.84 1303.41 1739.25 1302.15 1739.91 1301.57 1741.09 1302.92 1741.75 1302.34Z" fill="#2A3F6F" fill-rule="evenodd"/><path d="M1818 549C1819 549.784 1820 550.569 1821 551.353 1818.9 552.733 1818.63 551.887 1818 549Z" fill="#2A3F6F" fill-rule="evenodd"/><path d="M1843.66 748C1843.53 746.149 1842.14 747.28 1842.01 745.402 1841.99 745.175 1841.91 743.996 1843.31 743.091 1843.59 742.913 1846.74 742.454 1843.66 748Z" fill="#2A3F6F" fill-rule="evenodd"/><path d="M2323 1393.41C2320.51 1394.75 2318.97 1396.21 2319 1393.38 2319.01 1392.35 2321.1 1390.83 2321.46 1391.02 2322.32 1391.46 2322.14 1392.96 2323 1393.41Z" fill="#2A3F6F" fill-rule="evenodd"/><path d="M1564 488C1564.39 484.508 1563.09 483.125 1565.85 483.008 1571.46 482.771 1564.34 487.762 1564 488Z" fill="#2A3F6F" fill-rule="evenodd"/><path d="M1589.13 1059C1589.17 1057.18 1586.96 1058.47 1587 1056.51 1587.01 1056.25 1587.03 1055.07 1589.24 1054.05 1589.59 1053.88 1593.09 1053.87 1589.13 1059Z" fill="#2A3F6F" fill-rule="evenodd"/><path d="M1548.58 1085C1545.11 1079.75 1548.37 1079.94 1548.76 1080.03 1551.04 1080.58 1551.01 1081.44 1551 1081.66 1550.92 1083.97 1548.66 1082.69 1548.58 1085Z" fill="#2A3F6F" fill-rule="evenodd"/><path d="M2849 2110.24C2847.3 2110.28 2848.14 2111.96 2846.42 2112 2846.19 2112 2844.96 2112.03 2844.07 2110.36 2843.88 2110 2843.73 2105.31 2849 2110.24Z" fill="#2A3F6F" fill-rule="evenodd"/><path d="M1708.01 2167C1707.43 2166.21 1705.6 2166.34 1705.02 2165.54 1704.59 2164.96 1711.5 2161.66 1708.01 2167Z" fill="#2A3F6F" fill-rule="evenodd"/><path d="M2397.28 1330C2396.88 1328.99 2395.41 1328.75 2395 1327.74 2394.91 1327.51 2396.14 1325.88 2397.46 1326.01 2400.3 1326.28 2398.59 1327.52 2397.28 1330Z" fill="#2A3F6F" fill-rule="evenodd"/><path d="M2754 1151.15 2751.15 1154C2751.17 1153.28 2749.98 1153.07 2750 1152.35 2750.08 1148.82 2751.32 1150.02 2754 1151.15Z" fill="#2A3F6F" fill-rule="evenodd"/><path d="M3040 1965.18C3042.39 1964.83 3040.66 1963.38 3043.05 1963.03 3043.27 1963 3045.05 1962.74 3045 1964.45 3044.93 1966.86 3043.32 1965.92 3040 1965.18Z" fill="#2A3F6F" fill-rule="evenodd"/><path d="M2459 1289 2461 1291.8C2460.14 1291.67 2459.92 1294.13 2459.06 1294 2459.06 1294 2459 1289.4 2459 1289Z" fill="#2A3F6F" fill-rule="evenodd"/><path d="M1739.07 1630C1739.11 1627.12 1738.34 1625.02 1741.11 1626.47 1743.53 1627.75 1740.41 1627.68 1739.07 1630Z" fill="#2A3F6F" fill-rule="evenodd"/><path d="M2837.02 1142C2836.84 1139.08 2837.83 1139.69 2840 1138L2837.02 1142Z" fill="#2A3F6F" fill-rule="evenodd"/><path d="M1834 496.892 1838 494C1836.26 496.134 1836.85 497.388 1834 496.892Z" fill="#2A3F6F" fill-rule="evenodd"/><path d="M1444 1371C1442.77 1373.52 1442.3 1379.02 1440 1373.88 1441.33 1372.92 1442.67 1371.96 1444 1371Z" fill="#2A3F6F" fill-rule="evenodd"/><path d="M2754.15 1151C2753.82 1152.08 2755.29 1151.43 2754.95 1152.55 2754.84 1152.91 2754.67 1152.65 2751 1154 2751 1154 2754.15 1151 2754.15 1151Z" fill="#2A3F6F" fill-rule="evenodd"/><path d="M3052 1971.42C3053.16 1970.72 3052.85 1969.3 3053.68 1970.41 3054.62 1971.65 3054.04 1971.72 3055 1973 3054 1972.47 3053 1971.94 3052 1971.42Z" fill="#2A3F6F" fill-rule="evenodd"/><path d="M2814 1150 2811.8 1152C2811.97 1151.26 2810.83 1151.99 2811.02 1151.14 2811.08 1150.87 2811.24 1151.05 2814 1150Z" fill="#2A3F6F" fill-rule="evenodd"/><path d="M1572 1272C1573 1272.92 1574 1273.85 1575 1274.77 1574.13 1274.76 1573.5 1276.01 1572.63 1276 1572.33 1276 1572.58 1275.72 1572 1272Z" fill="#2A3F6F" fill-rule="evenodd"/><path d="M1818 548.967C1818.68 548.992 1819.17 547.975 1819.85 548 1819.85 548 1820.91 550.76 1821 551 1820 550.322 1819 549.644 1818 548.967Z" fill="#2A3F6F" fill-rule="evenodd"/></g></svg>